<svg version="1.1" id="Layer_1" xmlns="http://www.w3.org/2000/svg" xmlns:xlink="http://www.w3.org/1999/xlink" x="0px" y="0px"
	 width="100%" viewBox="0 0 1024 1024" enable-background="new 0 0 1024 1024" xml:space="preserve">
<path fill="#000000" opacity="1.000000" stroke="none" 
	d="
M519.453430,507.482635 
	C506.910675,516.365417 495.269623,525.838928 483.832245,535.522461 
	C477.861450,540.577698 471.848755,543.887390 463.749512,543.837280 
	C453.607788,543.774414 443.460846,544.665344 433.314423,545.104065 
	C432.189697,545.152710 430.962646,545.326843 429.966797,544.296692 
	C429.279144,542.221558 431.043640,541.379700 432.221985,540.378235 
	C457.844391,518.601624 484.887756,499.011932 516.063538,485.736206 
	C532.805237,478.607025 550.105286,474.598022 568.416565,474.592346 
	C582.896362,474.587830 597.357788,474.134094 611.859863,474.541656 
	C650.603516,475.630554 687.855530,482.560608 722.970642,499.697784 
	C741.227539,508.607635 759.939026,516.581299 778.351685,525.178223 
	C791.890991,531.499756 806.206116,534.137634 820.966492,534.551819 
	C832.124084,534.864929 843.297485,534.596680 854.463501,534.650879 
	C856.398010,534.660278 858.452332,534.167053 860.905701,535.885681 
	C857.803833,540.512634 854.876526,545.252686 851.558167,549.701050 
	C849.249084,552.796326 849.425476,554.692932 852.830383,556.803650 
	C874.330200,570.131287 880.401550,589.807434 875.903687,613.720825 
	C875.139587,617.783081 874.358704,621.842346 873.538696,625.893555 
	C873.503662,626.066406 872.993835,626.143127 872.609436,626.304932 
	C871.026123,625.044495 871.722656,623.276306 871.757507,621.764160 
	C871.949585,613.427917 871.765137,605.121094 870.716064,596.832275 
	C870.092407,591.904114 867.708374,588.714722 862.633179,588.193542 
	C849.063477,586.800049 835.496582,585.322815 821.897034,584.297607 
	C813.589233,583.671387 807.238098,580.426086 803.028259,573.144653 
	C799.880188,567.699646 801.161133,565.076416 807.501343,564.806580 
	C818.483948,564.339111 829.475586,564.082520 840.463074,563.727539 
	C841.784424,563.684875 843.103821,563.579773 845.082458,563.465515 
	C843.404968,560.916748 841.062805,560.894226 839.008606,560.273682 
	C814.881958,552.986267 790.010925,553.733459 765.218628,553.104553 
	C728.571838,552.174927 691.913391,551.747498 655.281921,552.549805 
	C621.960693,553.279602 588.639343,552.889832 555.323059,553.632324 
	C530.010742,554.196472 504.670685,553.701233 479.368744,554.496033 
	C448.229187,555.474304 417.047272,554.465942 385.945129,556.426758 
	C359.002258,558.125366 332.782471,563.346313 308.317596,575.278992 
	C302.232697,578.246948 295.872528,576.976379 289.679993,577.868774 
	C272.771881,580.305237 257.520111,586.202148 244.403778,597.294128 
	C243.930984,597.694031 243.294785,597.900635 242.388855,598.380615 
	C241.085983,594.758789 242.783615,591.684143 243.267105,588.591248 
	C244.306320,581.943542 241.881317,579.498474 235.291016,580.815857 
	C208.871353,586.096863 184.934830,596.888794 163.563461,613.277710 
	C160.870132,615.343079 159.425751,614.861816 157.529495,612.328796 
	C152.722778,605.908081 152.644485,606.015320 159.588684,601.833618 
	C190.885666,582.986938 223.736511,567.890930 259.672791,560.189880 
	C276.637024,556.554626 293.881775,555.047363 311.120544,553.795837 
	C337.013123,551.915955 362.933838,550.356262 388.862762,549.065613 
	C411.817078,547.922974 434.799561,547.350403 457.768433,546.495300 
	C484.069153,545.516174 510.373413,544.821167 536.694031,544.514343 
	C564.671814,544.188232 592.641968,543.212585 620.619690,542.880798 
	C626.335205,542.812988 628.978149,540.622864 630.595825,535.401184 
	C634.093079,524.112610 638.053955,512.967773 641.825195,501.764099 
	C642.144043,500.816956 642.376038,499.828918 642.798889,498.930695 
	C644.014587,496.347717 645.409851,493.072723 648.744263,494.074097 
	C652.420227,495.178070 650.476562,498.575500 649.895386,500.923767 
	C646.937134,512.877930 643.789368,524.785095 640.736328,536.716003 
	C640.329651,538.305115 640.085083,539.935730 639.768555,541.531677 
	C648.865723,543.527283 770.110779,538.723755 774.399109,536.010620 
	C771.958557,531.657043 768.157776,528.616943 763.925964,526.524719 
	C730.595581,510.046051 697.044678,493.975952 659.940674,487.730743 
	C634.038025,483.370941 607.897705,483.688873 581.733643,484.947540 
	C558.721069,486.054596 538.103027,493.430695 519.453430,507.482635 
z"/>
<path fill="#000000" opacity="1.000000" stroke="none" 
	d="
M494.000000,669.186035 
	C474.678619,669.167419 455.857269,669.152344 437.035889,669.126648 
	C434.063721,669.122559 431.065063,669.154114 428.659332,666.616638 
	C431.200653,662.768311 435.305267,663.359314 438.679718,663.013245 
	C473.243622,659.468506 507.830353,656.146851 542.411865,652.774719 
	C555.315247,651.516479 568.212708,650.185913 581.129028,649.076233 
	C595.133179,647.873230 605.900818,641.002686 614.630127,630.435425 
	C625.040771,617.832764 637.353149,607.556519 651.690796,599.676270 
	C663.158020,593.373718 675.289490,588.883911 688.052124,586.113159 
	C690.890747,585.497009 693.895386,584.749817 696.675598,586.576050 
	C696.693909,589.445740 694.622009,590.364807 692.712891,591.314941 
	C662.114014,606.542236 641.546570,631.184021 627.207520,661.519775 
	C624.585571,667.066711 621.209473,669.414429 614.923462,669.374573 
	C574.783508,669.120117 534.641418,669.209656 494.000000,669.186035 
z"/>
<path fill="#000000" opacity="1.000000" stroke="none" 
	d="
M668.650391,645.922852 
	C675.507019,616.645203 693.249329,598.922607 721.327209,595.323914 
	C760.895813,590.252686 790.184570,624.062012 788.346130,655.222656 
	C788.299072,656.021606 788.101929,656.811707 787.952942,657.742981 
	C785.705139,656.896423 786.093201,654.970764 785.699524,653.493652 
	C781.391479,637.330505 774.515076,622.813416 760.030029,613.124695 
	C749.909973,606.355530 738.519287,603.928345 726.699463,604.974304 
	C694.339294,607.837891 677.920105,622.862488 671.101868,654.927246 
	C670.901794,655.868286 670.860291,656.961975 669.443298,657.350342 
	C667.611389,653.794556 667.730530,650.105042 668.650391,645.922852 
z"/>
<path fill="#000000" opacity="1.000000" stroke="none" 
	d="
M349.057495,653.386475 
	C348.676910,654.876465 348.345825,655.963135 347.645905,658.260498 
	C339.550751,622.948853 319.606659,601.820435 283.040375,604.828491 
	C252.370438,607.351501 236.188690,627.816528 230.630936,657.551270 
	C228.235519,656.554749 228.670334,654.548096 228.728867,652.956726 
	C229.488327,632.315125 238.882690,616.050903 255.718338,604.847412 
	C292.219635,580.557312 341.871124,601.577454 349.085083,648.499573 
	C349.309753,649.960754 349.109283,651.487183 349.057495,653.386475 
z"/>
<path fill="#000000" opacity="1.000000" stroke="none" 
	d="
M449.704865,582.648560 
	C430.492157,584.566223 411.643311,586.375183 392.796753,588.208252 
	C391.350159,588.348938 389.762085,588.052917 388.036377,589.812073 
	C391.276581,596.039062 394.206726,602.694824 398.899994,608.307617 
	C401.166840,611.018616 404.762970,611.258789 408.061890,611.635254 
	C415.319336,612.463562 422.594788,613.133301 429.854004,613.947266 
	C431.744904,614.159180 433.602936,614.663757 435.680695,615.074463 
	C434.553955,616.779175 433.294250,616.368774 432.224152,616.369446 
	C419.743988,616.377625 407.263702,616.362000 394.783661,616.307617 
	C389.280304,616.283630 384.622467,614.212891 381.487823,609.663452 
	C377.427765,603.770813 373.854553,597.547180 370.874908,591.036621 
	C368.044678,584.852539 370.732117,580.124268 377.515869,580.049561 
	C393.816925,579.869995 410.123108,580.097656 426.426666,580.230042 
	C433.063873,580.283936 439.700775,580.479553 446.335175,580.693726 
	C448.074493,580.749817 449.950256,580.122864 451.536530,581.353455 
	C451.404053,582.281433 450.660858,582.314575 449.704865,582.648560 
z"/>
<path fill="#000000" opacity="1.000000" stroke="none" 
	d="
M396.756409,513.243958 
	C384.534607,515.217590 378.707581,522.818054 376.695068,534.715088 
	C373.679230,522.053406 366.643524,514.044739 353.183624,511.791901 
	C366.332275,509.292816 374.200073,502.179413 376.082397,488.575195 
	C378.856842,501.654633 386.217346,509.295319 398.859314,511.016205 
	C399.205444,512.930786 398.057220,512.954895 396.756409,513.243958 
z"/>
<path fill="#000000" opacity="1.000000" stroke="none" 
	d="
M609.781616,385.223694 
	C609.076782,383.712463 610.156006,383.805115 610.874634,383.683716 
	C622.143555,381.780548 629.121338,375.530334 630.943176,363.993286 
	C631.013550,363.548035 631.414917,363.144165 631.704041,362.751923 
	C631.777832,362.651794 632.012146,362.670013 632.949341,362.458740 
	C634.678284,375.139893 642.461548,382.160889 655.481262,384.717163 
	C642.505981,387.106262 634.570557,394.073639 632.426819,407.665283 
	C629.836487,394.897247 622.409424,387.559509 609.781616,385.223694 
z"/>
<path fill="#000000" opacity="1.000000" stroke="none" 
	d="
M175.737671,615.046204 
	C176.204742,610.876526 178.605087,608.339294 181.365051,606.145447 
	C189.954437,599.317810 200.079697,595.523926 210.222366,591.797302 
	C210.553040,591.675842 211.065948,592.050415 211.930496,592.339905 
	C208.782471,595.971924 204.639420,597.813354 201.263474,600.598511 
	C199.983719,601.654297 198.554276,602.534973 197.320343,603.637817 
	C196.359558,604.496521 195.139206,605.471558 195.739960,606.992737 
	C196.298889,608.407959 197.727356,608.722229 199.080582,608.690979 
	C203.392761,608.591309 207.709534,608.494263 212.011215,608.200867 
	C215.418518,607.968506 218.806183,607.452271 222.265091,607.935608 
	C222.165176,608.637085 222.228378,609.125854 222.062943,609.222168 
	C209.950821,616.277527 197.098557,620.792969 182.866409,620.250854 
	C179.644714,620.128113 176.450638,619.520996 175.737671,615.046204 
z"/>
<path fill="#000000" opacity="1.000000" stroke="none" 
	d="
M525.533875,371.539154 
	C524.888306,373.610413 524.364746,375.333038 523.457092,378.319763 
	C521.113525,372.991638 520.125305,368.104797 516.387268,364.686707 
	C512.744812,361.356018 508.278168,359.891296 503.317627,357.857727 
	C514.332520,355.871368 520.991760,349.774963 522.990234,338.251526 
	C525.338806,349.577515 532.250000,355.545135 542.975891,358.072327 
	C535.154541,360.340942 528.512512,363.323425 525.533875,371.539154 
z"/>
<path fill="#000000" opacity="1.000000" stroke="none" 
	d="
M730.179382,474.937927 
	C729.813232,476.550934 729.789917,477.927704 728.029724,479.442902 
	C726.065186,468.317902 719.652588,461.762604 708.541626,459.296387 
	C719.527771,456.982635 726.190125,450.932495 728.266602,439.602112 
	C730.665710,450.719757 737.253052,456.859619 748.067322,459.365265 
	C739.538025,461.773529 732.353638,465.317780 730.179382,474.937927 
z"/>
<path fill="#000000" opacity="1.000000" stroke="none" 
	d="
M868.035095,643.510986 
	C868.293518,646.771790 867.327393,649.454468 866.666077,652.190674 
	C865.663513,656.338501 862.972351,658.360413 858.749695,658.361328 
	C845.760925,658.364075 832.772156,658.352417 819.783386,658.330811 
	C818.662903,658.328918 817.463440,658.388916 816.811584,657.225220 
	C817.404236,655.174438 819.193420,655.338745 820.492188,654.969788 
	C834.731628,650.924255 848.990784,646.947754 863.260254,643.009094 
	C864.765747,642.593506 866.402588,641.535217 868.035095,643.510986 
z"/>
<path fill="#000000" opacity="1.000000" stroke="none" 
	d="
M610.984314,574.310669 
	C605.833130,574.300110 601.176880,574.352173 596.523621,574.259094 
	C592.765015,574.183899 590.013489,572.634888 589.740784,568.500916 
	C589.454102,564.154663 592.362610,562.634277 596.004211,562.328857 
	C604.462524,561.619446 612.945007,561.702576 621.406921,562.263977 
	C625.123657,562.510620 627.979126,564.465454 627.841980,568.476990 
	C627.703735,572.519104 624.616028,574.049500 620.954712,574.245056 
	C617.804504,574.413269 614.639221,574.299561 610.984314,574.310669 
z"/>
<path fill="#000000" opacity="1.000000" stroke="none" 
	d="
M788.169556,596.007324 
	C785.189819,597.368835 784.654114,598.724243 786.556091,601.434082 
	C792.107361,609.343384 794.613708,618.296448 794.405029,628.274658 
	C787.207764,616.743896 778.904663,606.328430 767.753174,598.416199 
	C767.792725,597.888855 767.832336,597.361572 767.871948,596.834290 
	C777.981873,593.452759 788.091797,590.071167 798.201721,586.689636 
	C798.432373,587.156372 798.663086,587.623047 798.893738,588.089722 
	C796.102295,591.515869 791.904846,593.212402 788.169556,596.007324 
z"/>
<path fill="#000000" opacity="1.000000" stroke="none" 
	d="
M155.236420,668.294189 
	C153.169312,668.153015 151.449814,668.675293 149.240356,667.091980 
	C159.186890,651.867554 158.706894,635.390259 152.799530,617.898743 
	C157.017197,619.124634 157.990356,621.860657 159.118652,624.258545 
	C163.449387,633.462585 164.629929,643.370483 165.291992,653.365356 
	C165.456955,655.855530 165.270859,658.370667 165.468842,660.856628 
	C166.023010,667.814697 165.636200,668.286133 158.681137,668.287415 
	C157.681503,668.287598 156.681870,668.291077 155.236420,668.294189 
z"/>
<path fill="#000000" opacity="1.000000" stroke="none" 
	d="
M281.300171,496.641724 
	C284.144379,500.470306 288.184601,501.464264 292.661255,503.125244 
	C283.984070,504.913452 278.960358,509.741180 278.251953,519.000549 
	C274.796783,511.178833 270.829498,504.537140 261.272614,502.867126 
	C270.200745,501.477325 275.678284,497.251099 276.991608,487.610962 
	C278.747589,491.357788 279.917023,493.853058 281.300171,496.641724 
z"/>
<path fill="#000000" opacity="1.000000" stroke="none" 
	d="
M577.499329,421.480225 
	C582.675903,419.372772 584.033875,414.794830 586.292053,409.974457 
	C588.008850,417.625549 592.803772,421.792358 600.447205,423.731201 
	C592.798645,425.434296 588.115112,429.708435 586.293274,437.609589 
	C584.272095,430.057129 580.004517,425.439880 572.250977,424.485352 
	C573.900391,422.117981 575.797241,422.409729 577.499329,421.480225 
z"/>
<path fill="#000000" opacity="1.000000" stroke="none" 
	d="
M433.110535,471.468750 
	C432.484985,472.698120 431.409424,473.770752 431.007416,472.226746 
	C429.286987,465.618927 424.840118,461.949524 418.042297,459.718140 
	C425.453156,457.957611 429.522827,453.420715 431.643494,446.284576 
	C433.719452,453.411133 437.997040,457.837494 445.518799,459.691986 
	C439.530304,461.893799 434.175964,464.322296 433.110535,471.468750 
z"/>
</svg>