<svg version="1.1" id="Layer_1" xmlns="http://www.w3.org/2000/svg" xmlns:xlink="http://www.w3.org/1999/xlink" x="0px" y="0px"
	 width="100%" viewBox="0 0 1500 1500" enable-background="new 0 0 1500 1500" xml:space="preserve">
<path fill="#000000" opacity="1.000000" stroke="none" 
	d="
M690.000000,1501.000000 
	C460.000031,1501.000000 230.500076,1501.000000 1.000092,1501.000000 
	C1.000062,1001.000122 1.000062,501.000275 1.000031,1.000294 
	C500.999786,1.000196 1000.999573,1.000196 1500.999512,1.000098 
	C1500.999756,500.999664 1500.999756,1000.999329 1500.999878,1500.999512 
	C1230.833374,1501.000000 960.666687,1501.000000 690.000000,1501.000000 
M1217.500000,958.999939 
	C1232.926636,958.999939 1248.353271,958.999939 1263.708252,958.999939 
	C1263.708252,936.389526 1263.708252,914.347168 1263.708252,891.903625 
	C1277.877441,891.903625 1292.296509,891.903625 1306.756592,891.903625 
	C1306.756592,858.768250 1306.756592,826.037170 1306.756592,792.929260 
	C1292.110962,792.929260 1277.703247,792.929260 1263.632812,792.929260 
	C1263.632812,712.054688 1263.632812,631.557983 1263.632812,551.000122 
	C1222.945679,551.000122 1182.625732,550.959045 1142.306641,551.136780 
	C1140.526245,551.144592 1138.179565,552.739075 1137.070557,554.290649 
	C1128.340942,566.503052 1119.892334,578.915771 1111.274414,591.208740 
	C1092.463135,618.041992 1073.617676,644.851318 1054.758423,671.650940 
	C1037.193481,696.611328 1019.604919,721.555115 1002.003235,746.489624 
	C991.478088,761.399719 980.917847,776.285217 970.350952,791.165771 
	C967.380920,795.348206 965.798279,799.663391 965.859619,805.093018 
	C966.166443,832.247498 966.000000,859.407288 966.000000,886.565247 
	C966.000000,888.323303 966.000000,890.081299 966.000000,892.209717 
	C1027.347778,892.209717 1088.073364,892.209717 1149.190552,892.209717 
	C1149.190552,914.657471 1149.190552,936.727051 1149.190552,958.999939 
	C1171.889160,958.999939 1194.194580,958.999939 1217.500000,958.999939 
M913.274109,613.499878 
	C913.274109,629.637207 913.274109,645.774536 913.274109,661.911865 
	C911.259338,660.428711 910.224854,658.934021 909.223938,657.417175 
	C885.131897,620.907166 861.056335,584.386169 836.908936,547.912903 
	C835.905579,546.397461 834.265564,544.250916 832.872498,544.212708 
	C821.765625,543.908569 810.646790,544.043091 799.314819,544.043091 
	C799.314819,602.539307 799.314819,660.585510 799.314819,718.790283 
	C811.056702,718.790283 822.594849,718.790283 834.858521,718.790283 
	C834.858521,679.597534 834.858521,640.698303 834.858521,600.531982 
	C836.803711,603.382202 837.941956,605.005798 839.035461,606.658936 
	C863.077515,643.002747 887.102417,679.357971 911.199463,715.665344 
	C912.109619,717.036804 913.687012,718.898376 914.991089,718.928894 
	C926.101013,719.189026 937.219666,719.077820 948.536987,719.077820 
	C948.536987,660.570068 948.536987,602.525208 948.536987,544.333252 
	C936.740112,544.333252 925.191406,544.333252 913.274109,544.333252 
	C913.274109,567.251831 913.274109,589.875793 913.274109,613.499878 
M600.093811,659.500000 
	C600.093811,679.269165 600.093811,699.038330 600.093811,718.902893 
	C612.117981,718.902893 623.565491,718.902893 635.390503,718.902893 
	C635.390503,696.287659 635.390503,673.851135 635.390503,651.003784 
	C639.235107,651.003784 642.732056,651.266541 646.171692,650.934631 
	C650.116394,650.553955 652.299561,651.928467 654.273682,655.501587 
	C665.367676,675.581055 676.823975,695.460022 688.014587,715.486816 
	C689.487488,718.122620 691.044006,719.232300 694.170349,719.169800 
	C704.998596,718.953003 715.833923,719.098022 726.666443,719.069824 
	C727.865723,719.066711 729.064514,718.835693 730.748047,718.659729 
	C716.781189,694.953247 703.132202,671.786316 689.397339,648.473572 
	C690.828247,647.930237 691.886536,647.484070 692.972961,647.122375 
	C719.853516,638.172852 734.235901,612.074280 727.379272,584.672302 
	C721.860779,562.617920 703.064697,546.635437 678.363770,545.264343 
	C654.936218,543.963867 631.408936,544.459351 607.925354,544.173340 
	C605.471252,544.143433 603.016541,544.169250 600.767456,544.169250 
	C600.426208,544.935181 600.184937,545.223999 600.184570,545.513062 
	C600.142822,583.175354 600.118774,620.837708 600.093811,659.500000 
M416.511139,709.993958 
	C433.853546,720.474854 452.732605,722.934204 472.322327,719.700317 
	C494.558807,716.029541 512.124756,705.129639 522.339722,684.281128 
	C527.418396,673.915710 528.959717,662.767822 528.948364,651.323364 
	C528.914368,617.172424 528.938782,583.021545 528.927429,548.870605 
	C528.926941,547.425598 528.796692,545.980591 528.723816,544.471802 
	C516.811279,544.471802 505.252563,544.471802 493.274506,544.471802 
	C493.274506,546.404053 493.274475,548.035400 493.274475,549.666748 
	C493.274475,565.825989 493.293640,581.985168 493.269592,598.144409 
	C493.240356,617.801147 493.443695,637.463440 493.040802,657.112976 
	C492.711731,673.161987 483.518646,684.702698 468.684418,687.587891 
	C462.759644,688.740234 456.405457,688.677368 450.364868,688.042908 
	C436.146362,686.549377 426.314972,676.928650 423.964752,662.869080 
	C423.309784,658.950806 422.988831,654.931580 422.979889,650.957581 
	C422.904266,617.306580 422.936401,583.655396 422.936218,550.004211 
	C422.936218,548.217041 422.936249,546.429810 422.936249,544.408569 
	C411.043915,544.408569 399.614502,544.408569 388.052307,544.408569 
	C387.919830,545.062439 387.675934,545.700928 387.677612,546.338806 
	C387.778259,584.317688 387.386871,622.307739 388.221436,660.270874 
	C388.679138,681.091797 398.254425,697.891846 416.511139,709.993958 
M230.500000,959.003418 
	C239.163712,958.994568 247.829498,959.105347 256.490784,958.956299 
	C296.895355,958.261230 324.294739,931.062744 325.315613,890.722473 
	C326.239990,854.196472 305.382599,826.691772 269.355743,821.274658 
	C247.640976,818.009521 225.261780,819.163147 202.899872,818.320557 
	C202.899872,865.864563 202.899872,912.288696 202.899872,959.003357 
	C211.874115,959.003357 220.687057,959.003357 230.500000,959.003418 
M277.787659,648.500122 
	C277.787659,623.408203 277.787659,598.316284 277.787659,572.703247 
	C293.500366,572.703247 308.715820,572.703247 323.757935,572.703247 
	C323.757935,562.927734 323.757935,553.679688 323.757935,544.458679 
	C281.039062,544.458679 238.654724,544.458679 196.246216,544.458679 
	C196.246216,554.007812 196.246216,563.259033 196.246216,573.028076 
	C211.711517,573.028076 226.930649,573.028076 242.492310,573.028076 
	C242.492310,621.959717 242.492310,670.370605 242.492310,718.741333 
	C254.411148,718.741333 265.968719,718.741333 277.787659,718.741333 
	C277.787659,695.427795 277.787659,672.463928 277.787659,648.500122 
M749.504944,959.005127 
	C754.616577,959.005127 759.728149,959.005127 765.403870,959.005127 
	C748.527832,911.997314 731.844849,865.527222 715.194946,819.149414 
	C703.963440,819.149414 693.159912,819.149414 682.221191,819.149414 
	C665.520142,865.693726 648.846558,912.161499 632.078125,958.893555 
	C642.242981,958.893555 651.885620,958.893555 661.760132,958.893555 
	C664.447571,951.228455 667.270386,943.622070 669.733765,935.900940 
	C670.554504,933.328430 671.773254,932.595459 674.335510,932.610962 
	C690.487244,932.708984 706.640808,932.745361 722.791504,932.583679 
	C725.721985,932.554443 726.813171,933.661926 727.646118,936.236694 
	C730.089966,943.790527 732.789673,951.261597 735.472351,959.005127 
	C739.879517,959.005127 744.195984,959.005127 749.504944,959.005127 
M370.659119,846.499817 
	C370.659119,883.906982 370.659119,921.314087 370.659119,958.631958 
	C398.116669,958.631958 424.994476,958.631958 451.707886,958.631958 
	C451.707886,950.986938 451.707886,943.713318 451.707886,936.007629 
	C434.063141,936.007629 416.664276,936.007629 399.334900,936.007629 
	C399.334900,923.526367 399.334900,911.489502 399.334900,899.151855 
	C414.978394,899.151855 430.248657,899.151855 445.679260,899.151855 
	C445.679260,891.616943 445.679260,884.393555 445.679260,876.742676 
	C429.996552,876.742676 414.590668,876.742676 399.297180,876.742676 
	C399.297180,864.916443 399.297180,853.523315 399.297180,841.720093 
	C417.035431,841.720093 434.437927,841.720093 451.585205,841.720093 
	C451.585205,833.896912 451.585205,826.495972 451.585205,819.287354 
	C424.435120,819.287354 397.659546,819.287354 370.659119,819.287354 
	C370.659119,828.203369 370.659119,836.851562 370.659119,846.499817 
M522.464478,842.009155 
	C525.054504,842.009155 527.644531,842.009155 530.636475,842.009155 
	C530.636475,881.393311 530.636475,920.107300 530.636475,958.607666 
	C540.284302,958.607666 549.508911,958.607666 558.956665,958.607666 
	C558.956665,919.621277 558.956665,881.035767 558.956665,841.903625 
	C571.392883,841.903625 583.600342,841.903625 595.734131,841.903625 
	C595.734131,834.089539 595.734131,826.826050 595.734131,819.472046 
	C561.484985,819.472046 527.470947,819.472046 493.393005,819.472046 
	C493.393005,827.079285 493.393005,834.334351 493.393005,842.009155 
	C502.903961,842.009155 512.189270,842.009155 522.464478,842.009155 
M887.659119,947.491150 
	C887.659119,951.244812 887.659119,954.998535 887.659119,958.635559 
	C912.788330,958.635559 937.326050,958.635559 961.695190,958.635559 
	C961.695190,951.157898 961.695190,944.048035 961.695190,936.504700 
	C946.354492,936.504700 931.272400,936.504700 915.752441,936.504700 
	C915.752441,897.172729 915.752441,858.282715 915.752441,819.397827 
	C906.211853,819.397827 897.122864,819.397827 887.659058,819.397827 
	C887.659058,861.939758 887.659058,904.217224 887.659119,947.491150 
M835.959229,842.500000 
	C835.959229,834.753418 835.959229,827.006836 835.959229,819.460388 
	C826.090271,819.460388 817.000793,819.460388 807.852539,819.460388 
	C807.852539,866.056885 807.852539,912.324951 807.852539,958.706909 
	C817.273926,958.706909 826.499268,958.706909 835.959229,958.706909 
	C835.959229,920.108521 835.959229,881.804260 835.959229,842.500000 
z"/>
<path fill="#FFFFFF" opacity="1.000000" stroke="none" 
	d="
M1217.000000,958.999939 
	C1194.194580,958.999939 1171.889160,958.999939 1149.190552,958.999939 
	C1149.190552,936.727051 1149.190552,914.657471 1149.190552,892.209717 
	C1088.073364,892.209717 1027.347778,892.209717 966.000000,892.209717 
	C966.000000,890.081299 966.000000,888.323303 966.000000,886.565247 
	C966.000000,859.407288 966.166443,832.247498 965.859619,805.093018 
	C965.798279,799.663391 967.380920,795.348206 970.350952,791.165771 
	C980.917847,776.285217 991.478088,761.399719 1002.003235,746.489624 
	C1019.604919,721.555115 1037.193481,696.611328 1054.758423,671.650940 
	C1073.617676,644.851318 1092.463135,618.041992 1111.274414,591.208740 
	C1119.892334,578.915771 1128.340942,566.503052 1137.070557,554.290649 
	C1138.179565,552.739075 1140.526245,551.144592 1142.306641,551.136780 
	C1182.625732,550.959045 1222.945679,551.000122 1263.632812,551.000122 
	C1263.632812,631.557983 1263.632812,712.054688 1263.632812,792.929260 
	C1277.703247,792.929260 1292.110962,792.929260 1306.756592,792.929260 
	C1306.756592,826.037170 1306.756592,858.768250 1306.756592,891.903625 
	C1292.296509,891.903625 1277.877441,891.903625 1263.708252,891.903625 
	C1263.708252,914.347168 1263.708252,936.389526 1263.708252,958.999939 
	C1248.353271,958.999939 1232.926636,958.999939 1217.000000,958.999939 
M1090.035889,781.584595 
	C1087.667603,785.148438 1085.299316,788.712280 1082.632446,792.725464 
	C1108.035522,792.725464 1132.866699,792.725464 1156.941406,792.725464 
	C1156.941406,755.510498 1156.941406,718.457031 1156.941406,680.626526 
	C1155.204712,683.083862 1154.049072,684.629578 1152.986206,686.236877 
	C1141.702637,703.299500 1130.424316,720.365662 1119.163940,737.443665 
	C1109.597168,751.952942 1100.055786,766.479004 1090.035889,781.584595 
z"/>
<path fill="#FCFCFC" opacity="1.000000" stroke="none" 
	d="
M913.274109,612.999817 
	C913.274109,589.875793 913.274109,567.251831 913.274109,544.333252 
	C925.191406,544.333252 936.740112,544.333252 948.536987,544.333252 
	C948.536987,602.525208 948.536987,660.570068 948.536987,719.077820 
	C937.219666,719.077820 926.101013,719.189026 914.991089,718.928894 
	C913.687012,718.898376 912.109619,717.036804 911.199463,715.665344 
	C887.102417,679.357971 863.077515,643.002747 839.035461,606.658936 
	C837.941956,605.005798 836.803711,603.382202 834.858521,600.531982 
	C834.858521,640.698303 834.858521,679.597534 834.858521,718.790283 
	C822.594849,718.790283 811.056702,718.790283 799.314819,718.790283 
	C799.314819,660.585510 799.314819,602.539307 799.314819,544.043091 
	C810.646790,544.043091 821.765625,543.908569 832.872498,544.212708 
	C834.265564,544.250916 835.905579,546.397461 836.908936,547.912903 
	C861.056335,584.386169 885.131897,620.907166 909.223938,657.417175 
	C910.224854,658.934021 911.259338,660.428711 913.274109,661.911865 
	C913.274109,645.774536 913.274109,629.637207 913.274109,612.999817 
z"/>
<path fill="#FDFDFD" opacity="1.000000" stroke="none" 
	d="
M600.093811,659.000000 
	C600.118774,620.837708 600.142822,583.175354 600.184570,545.513062 
	C600.184937,545.223999 600.426208,544.935181 600.767456,544.169250 
	C603.016541,544.169250 605.471252,544.143433 607.925354,544.173340 
	C631.408936,544.459351 654.936218,543.963867 678.363770,545.264343 
	C703.064697,546.635437 721.860779,562.617920 727.379272,584.672302 
	C734.235901,612.074280 719.853516,638.172852 692.972961,647.122375 
	C691.886536,647.484070 690.828247,647.930237 689.397339,648.473572 
	C703.132202,671.786316 716.781189,694.953247 730.748047,718.659729 
	C729.064514,718.835693 727.865723,719.066711 726.666443,719.069824 
	C715.833923,719.098022 704.998596,718.953003 694.170349,719.169800 
	C691.044006,719.232300 689.487488,718.122620 688.014587,715.486816 
	C676.823975,695.460022 665.367676,675.581055 654.273682,655.501587 
	C652.299561,651.928467 650.116394,650.553955 646.171692,650.934631 
	C642.732056,651.266541 639.235107,651.003784 635.390503,651.003784 
	C635.390503,673.851135 635.390503,696.287659 635.390503,718.902893 
	C623.565491,718.902893 612.117981,718.902893 600.093811,718.902893 
	C600.093811,699.038330 600.093811,679.269165 600.093811,659.000000 
M677.738464,575.551086 
	C663.758057,574.632874 649.777649,573.714722 635.433716,572.772644 
	C635.433716,582.561829 635.433716,590.862122 635.433716,599.162354 
	C635.433716,607.565918 635.433716,615.969482 635.433716,624.115967 
	C647.713440,624.115967 659.199707,624.534851 670.641113,623.998535 
	C682.155945,623.458801 690.314697,615.828430 692.056030,605.230469 
	C694.431763,590.771545 689.860962,580.879395 677.738464,575.551086 
z"/>
<path fill="#FDFDFD" opacity="1.000000" stroke="none" 
	d="
M416.192230,709.820679 
	C398.254425,697.891846 388.679138,681.091797 388.221436,660.270874 
	C387.386871,622.307739 387.778259,584.317688 387.677612,546.338806 
	C387.675934,545.700928 387.919830,545.062439 388.052307,544.408569 
	C399.614502,544.408569 411.043915,544.408569 422.936249,544.408569 
	C422.936249,546.429810 422.936218,548.217041 422.936218,550.004211 
	C422.936401,583.655396 422.904266,617.306580 422.979889,650.957581 
	C422.988831,654.931580 423.309784,658.950806 423.964752,662.869080 
	C426.314972,676.928650 436.146362,686.549377 450.364868,688.042908 
	C456.405457,688.677368 462.759644,688.740234 468.684418,687.587891 
	C483.518646,684.702698 492.711731,673.161987 493.040802,657.112976 
	C493.443695,637.463440 493.240356,617.801147 493.269592,598.144409 
	C493.293640,581.985168 493.274475,565.825989 493.274475,549.666748 
	C493.274475,548.035400 493.274506,546.404053 493.274506,544.471802 
	C505.252563,544.471802 516.811279,544.471802 528.723816,544.471802 
	C528.796692,545.980591 528.926941,547.425598 528.927429,548.870605 
	C528.938782,583.021545 528.914368,617.172424 528.948364,651.323364 
	C528.959717,662.767822 527.418396,673.915710 522.339722,684.281128 
	C512.124756,705.129639 494.558807,716.029541 472.322327,719.700317 
	C452.732605,722.934204 433.853546,720.474854 416.192230,709.820679 
z"/>
<path fill="#FDFDFD" opacity="1.000000" stroke="none" 
	d="
M230.000000,959.003418 
	C220.687057,959.003357 211.874115,959.003357 202.899872,959.003357 
	C202.899872,912.288696 202.899872,865.864563 202.899872,818.320557 
	C225.261780,819.163147 247.640976,818.009521 269.355743,821.274658 
	C305.382599,826.691772 326.239990,854.196472 325.315613,890.722473 
	C324.294739,931.062744 296.895355,958.261230 256.490784,958.956299 
	C247.829498,959.105347 239.163712,958.994568 230.000000,959.003418 
M293.764984,907.986450 
	C294.522827,899.085693 296.313477,890.128113 295.827271,881.295837 
	C294.757568,861.862854 281.501617,847.113281 262.615540,844.274475 
	C252.350464,842.731567 241.804428,843.057739 231.324432,842.537842 
	C231.324432,873.940002 231.324432,904.468262 231.324432,935.027344 
	C239.021286,935.027344 246.355911,935.154846 253.684738,935.002625 
	C273.189758,934.597595 287.130981,925.307068 293.764984,907.986450 
z"/>
<path fill="#FBFBFB" opacity="1.000000" stroke="none" 
	d="
M277.787659,649.000122 
	C277.787659,672.463928 277.787659,695.427795 277.787659,718.741333 
	C265.968719,718.741333 254.411148,718.741333 242.492310,718.741333 
	C242.492310,670.370605 242.492310,621.959717 242.492310,573.028076 
	C226.930649,573.028076 211.711517,573.028076 196.246216,573.028076 
	C196.246216,563.259033 196.246216,554.007812 196.246216,544.458679 
	C238.654724,544.458679 281.039062,544.458679 323.757935,544.458679 
	C323.757935,553.679688 323.757935,562.927734 323.757935,572.703247 
	C308.715820,572.703247 293.500366,572.703247 277.787659,572.703247 
	C277.787659,598.316284 277.787659,623.408203 277.787659,649.000122 
z"/>
<path fill="#FCFCFC" opacity="1.000000" stroke="none" 
	d="
M749.008667,959.005127 
	C744.195984,959.005127 739.879517,959.005127 735.472351,959.005127 
	C732.789673,951.261597 730.089966,943.790527 727.646118,936.236694 
	C726.813171,933.661926 725.721985,932.554443 722.791504,932.583679 
	C706.640808,932.745361 690.487244,932.708984 674.335510,932.610962 
	C671.773254,932.595459 670.554504,933.328430 669.733765,935.900940 
	C667.270386,943.622070 664.447571,951.228455 661.760132,958.893555 
	C651.885620,958.893555 642.242981,958.893555 632.078125,958.893555 
	C648.846558,912.161499 665.520142,865.693726 682.221191,819.149414 
	C693.159912,819.149414 703.963440,819.149414 715.194946,819.149414 
	C731.844849,865.527222 748.527832,911.997314 765.403870,959.005127 
	C759.728149,959.005127 754.616577,959.005127 749.008667,959.005127 
M684.760010,892.252808 
	C682.758789,898.009216 680.757568,903.765625 678.704895,909.670044 
	C692.145386,909.670044 705.048645,909.670044 718.557068,909.670044 
	C711.924988,890.505249 705.435913,871.753662 698.614014,852.040344 
	C693.823303,865.861084 689.382690,878.671814 684.760010,892.252808 
z"/>
<path fill="#FEFEFE" opacity="1.000000" stroke="none" 
	d="
M370.659119,845.999756 
	C370.659119,836.851562 370.659119,828.203369 370.659119,819.287354 
	C397.659546,819.287354 424.435120,819.287354 451.585205,819.287354 
	C451.585205,826.495972 451.585205,833.896912 451.585205,841.720093 
	C434.437927,841.720093 417.035431,841.720093 399.297180,841.720093 
	C399.297180,853.523315 399.297180,864.916443 399.297180,876.742676 
	C414.590668,876.742676 429.996552,876.742676 445.679260,876.742676 
	C445.679260,884.393555 445.679260,891.616943 445.679260,899.151855 
	C430.248657,899.151855 414.978394,899.151855 399.334900,899.151855 
	C399.334900,911.489502 399.334900,923.526367 399.334900,936.007629 
	C416.664276,936.007629 434.063141,936.007629 451.707886,936.007629 
	C451.707886,943.713318 451.707886,950.986938 451.707886,958.631958 
	C424.994476,958.631958 398.116669,958.631958 370.659119,958.631958 
	C370.659119,921.314087 370.659119,883.906982 370.659119,845.999756 
z"/>
<path fill="#FAFAFA" opacity="1.000000" stroke="none" 
	d="
M521.969543,842.009155 
	C512.189270,842.009155 502.903961,842.009155 493.393005,842.009155 
	C493.393005,834.334351 493.393005,827.079285 493.393005,819.472046 
	C527.470947,819.472046 561.484985,819.472046 595.734131,819.472046 
	C595.734131,826.826050 595.734131,834.089539 595.734131,841.903625 
	C583.600342,841.903625 571.392883,841.903625 558.956665,841.903625 
	C558.956665,881.035767 558.956665,919.621277 558.956665,958.607666 
	C549.508911,958.607666 540.284302,958.607666 530.636475,958.607666 
	C530.636475,920.107300 530.636475,881.393311 530.636475,842.009155 
	C527.644531,842.009155 525.054504,842.009155 521.969543,842.009155 
z"/>
<path fill="#FEFEFE" opacity="1.000000" stroke="none" 
	d="
M887.659058,946.992920 
	C887.659058,904.217224 887.659058,861.939758 887.659058,819.397827 
	C897.122864,819.397827 906.211853,819.397827 915.752441,819.397827 
	C915.752441,858.282715 915.752441,897.172729 915.752441,936.504700 
	C931.272400,936.504700 946.354492,936.504700 961.695190,936.504700 
	C961.695190,944.048035 961.695190,951.157898 961.695190,958.635559 
	C937.326050,958.635559 912.788330,958.635559 887.659119,958.635559 
	C887.659119,954.998535 887.659119,951.244812 887.659058,946.992920 
z"/>
<path fill="#FEFEFE" opacity="1.000000" stroke="none" 
	d="
M835.959229,843.000000 
	C835.959229,881.804260 835.959229,920.108521 835.959229,958.706909 
	C826.499268,958.706909 817.273926,958.706909 807.852539,958.706909 
	C807.852539,912.324951 807.852539,866.056885 807.852539,819.460388 
	C817.000793,819.460388 826.090271,819.460388 835.959229,819.460388 
	C835.959229,827.006836 835.959229,834.753418 835.959229,843.000000 
z"/>
<path fill="#000000" opacity="1.000000" stroke="none" 
	d="
M1090.269531,781.291138 
	C1100.055786,766.479004 1109.597168,751.952942 1119.163940,737.443665 
	C1130.424316,720.365662 1141.702637,703.299500 1152.986206,686.236877 
	C1154.049072,684.629578 1155.204712,683.083862 1156.941406,680.626526 
	C1156.941406,718.457031 1156.941406,755.510498 1156.941406,792.725464 
	C1132.866699,792.725464 1108.035522,792.725464 1082.632446,792.725464 
	C1085.299316,788.712280 1087.667603,785.148438 1090.269531,781.291138 
z"/>
<path fill="#040404" opacity="1.000000" stroke="none" 
	d="
M678.105652,575.692200 
	C689.860962,580.879395 694.431763,590.771545 692.056030,605.230469 
	C690.314697,615.828430 682.155945,623.458801 670.641113,623.998535 
	C659.199707,624.534851 647.713440,624.115967 635.433716,624.115967 
	C635.433716,615.969482 635.433716,607.565918 635.433716,599.162354 
	C635.433716,590.862122 635.433716,582.561829 635.433716,572.772644 
	C649.777649,573.714722 663.758057,574.632874 678.105652,575.692200 
z"/>
<path fill="#010101" opacity="1.000000" stroke="none" 
	d="
M293.585083,908.341187 
	C287.130981,925.307068 273.189758,934.597595 253.684738,935.002625 
	C246.355911,935.154846 239.021286,935.027344 231.324432,935.027344 
	C231.324432,904.468262 231.324432,873.940002 231.324432,842.537842 
	C241.804428,843.057739 252.350464,842.731567 262.615540,844.274475 
	C281.501617,847.113281 294.757568,861.862854 295.827271,881.295837 
	C296.313477,890.128113 294.522827,899.085693 293.585083,908.341187 
z"/>
<path fill="#040404" opacity="1.000000" stroke="none" 
	d="
M684.851074,891.867676 
	C689.382690,878.671814 693.823303,865.861084 698.614014,852.040344 
	C705.435913,871.753662 711.924988,890.505249 718.557068,909.670044 
	C705.048645,909.670044 692.145386,909.670044 678.704895,909.670044 
	C680.757568,903.765625 682.758789,898.009216 684.851074,891.867676 
z"/>
</svg>