<svg version="1.1" id="Layer_1" xmlns="http://www.w3.org/2000/svg" xmlns:xlink="http://www.w3.org/1999/xlink" x="0px" y="0px"
	 width="100%" viewBox="0 0 1500 1500" enable-background="new 0 0 1500 1500" xml:space="preserve">
<path fill="#000000" opacity="1.000000" stroke="none" 
	d="
M873.000000,1501.000000 
	C582.000061,1501.000000 291.500092,1501.000000 1.000117,1501.000000 
	C1.000078,1001.000122 1.000078,501.000275 1.000039,1.000318 
	C500.999756,1.000212 1000.999512,1.000212 1500.999512,1.000106 
	C1500.999634,500.999664 1500.999634,1000.999329 1500.999756,1500.999512 
	C1291.833374,1501.000000 1082.666626,1501.000000 873.000000,1501.000000 
M1198.789185,907.966797 
	C1201.395996,908.641907 1203.967285,909.645020 1206.616089,909.930359 
	C1214.430176,910.772339 1222.265015,911.716797 1230.109619,911.914124 
	C1243.869263,912.260193 1257.688965,911.875916 1270.964966,907.855530 
	C1279.134033,905.381653 1287.198486,902.238403 1294.854492,898.470337 
	C1305.980957,892.993958 1315.156860,884.892273 1323.220703,875.399353 
	C1330.879028,866.384216 1335.681152,855.801819 1339.744873,845.042664 
	C1342.421753,837.955627 1343.216919,830.000916 1343.882690,822.350098 
	C1344.755493,812.316895 1344.961182,802.198120 1344.884766,792.120483 
	C1344.841797,786.453186 1344.382568,780.581543 1342.806274,775.182861 
	C1340.544312,767.435486 1337.014648,760.064758 1334.165649,752.480835 
	C1329.996460,741.382263 1322.149048,732.842896 1313.692383,725.195129 
	C1308.067017,720.107788 1300.759521,716.808289 1294.017822,713.043579 
	C1282.954712,706.865662 1270.654785,705.048889 1258.299805,704.082458 
	C1243.827148,702.950378 1229.618652,704.856445 1216.158081,710.459900 
	C1210.079102,712.990601 1203.874756,715.441772 1198.995361,720.353821 
	C1194.512085,724.867249 1189.515259,728.870483 1184.885010,732.973938 
	C1186.531982,720.916687 1188.570557,708.308838 1189.877563,695.625549 
	C1190.782471,686.844177 1193.465454,678.737183 1197.055176,670.836548 
	C1199.973755,664.413269 1204.649780,659.318115 1210.681519,655.859192 
	C1221.255859,649.795471 1232.693237,649.747192 1244.149536,652.694397 
	C1257.010376,656.003113 1261.402222,666.875000 1264.752319,677.898254 
	C1265.790771,681.315063 1266.760864,682.062134 1269.845093,682.042297 
	C1284.506104,681.947937 1299.168091,682.000000 1313.829712,681.999939 
	C1321.459961,681.999878 1329.090210,681.999939 1337.630005,681.999939 
	C1336.649780,678.197021 1335.751587,675.015015 1335.015137,671.795959 
	C1333.298096,664.290955 1332.649536,656.363098 1329.777466,649.338623 
	C1324.164185,635.609497 1316.835693,622.867188 1304.885986,613.177307 
	C1296.100220,606.052979 1287.187256,599.731812 1276.367432,595.820984 
	C1264.348511,591.476807 1252.207397,589.111694 1239.483398,588.956299 
	C1225.549438,588.786072 1211.694336,589.133301 1198.190918,593.039917 
	C1192.529297,594.677856 1186.373901,595.598816 1181.428345,598.516113 
	C1171.071045,604.625610 1160.953979,610.975708 1152.716675,620.377197 
	C1142.402222,632.149597 1135.042847,645.318787 1130.180298,659.845032 
	C1126.896729,669.654663 1125.300293,680.030090 1122.968018,690.156738 
	C1120.323853,701.637146 1118.828613,713.228271 1118.956421,725.052795 
	C1119.130981,741.211975 1119.073853,757.374878 1118.978760,773.535400 
	C1118.888184,788.925171 1121.636841,803.856201 1124.680298,818.901062 
	C1127.025269,830.493469 1130.204590,841.572510 1134.958008,852.328979 
	C1140.299805,864.416565 1146.574829,875.665894 1156.309204,885.049927 
	C1168.236816,896.548157 1182.322876,903.396423 1198.789185,907.966797 
M1051.017700,631.500000 
	C1051.017700,649.419800 1051.017700,667.339600 1051.017700,686.656494 
	C1049.186035,683.949890 1048.107666,682.389526 1047.062500,680.807068 
	C1028.087036,652.079041 1009.135498,623.335083 990.085938,594.656250 
	C989.109375,593.186096 987.334839,591.308655 985.870728,591.253784 
	C977.272217,590.931946 968.655579,591.095703 959.894104,591.095703 
	C959.894104,637.975403 959.894104,684.388794 959.894104,730.708801 
	C969.360474,730.708801 978.582947,730.708801 988.171997,730.708801 
	C988.171997,699.312561 988.171997,668.291382 988.171997,636.270386 
	C989.561279,638.310425 990.384399,639.489014 991.177307,640.687622 
	C1010.264954,669.542236 1029.332397,698.410278 1048.481323,727.224243 
	C1049.489868,728.741943 1051.141968,730.852844 1052.563843,730.908203 
	C1061.324341,731.249634 1070.104736,731.079529 1078.873047,731.079529 
	C1078.873047,684.183044 1078.873047,637.804321 1078.873047,591.356445 
	C1069.506104,591.356445 1060.434814,591.356445 1051.017700,591.356445 
	C1051.017700,604.576843 1051.017700,617.538391 1051.017700,631.500000 
M792.471008,701.017883 
	C810.332581,726.285950 835.142883,736.214050 865.065613,731.399109 
	C906.456055,724.738831 931.664673,685.738953 922.368286,644.717407 
	C913.271240,604.575562 873.967468,581.014832 833.696655,591.707397 
	C781.379028,605.598694 768.519714,663.735840 792.471008,701.017883 
M531.122803,607.380005 
	C511.660187,590.263123 488.931000,586.126221 464.384125,591.813721 
	C427.229004,600.422729 404.851501,636.456299 413.664124,677.578186 
	C425.584778,733.202942 486.059692,743.349854 520.828308,722.358398 
	C534.359192,714.189148 543.284424,702.485046 548.380249,686.995850 
	C537.918091,686.995850 527.972900,686.922180 518.032104,687.098450 
	C516.916870,687.118225 515.354370,688.304565 514.794495,689.368408 
	C502.359772,712.996155 463.043457,713.398132 448.235077,688.746094 
	C439.665649,674.480286 438.755219,659.071289 443.595032,643.486206 
	C448.724457,626.968445 460.281311,617.200317 477.534363,615.339233 
	C493.257935,613.643250 506.456635,618.395142 514.958069,632.811768 
	C515.562073,633.836060 517.175293,634.850037 518.335754,634.869263 
	C528.153687,635.032043 537.975403,634.962219 548.340210,634.962219 
	C545.018127,624.202148 539.461060,615.351440 531.122803,607.380005 
M184.448730,592.979126 
	C183.516251,593.327393 182.564896,593.632568 181.654099,594.030457 
	C165.867599,600.927612 157.581085,612.983032 157.398407,630.217163 
	C157.223740,646.694580 165.252380,658.073730 181.981049,664.647339 
	C191.076813,668.221619 200.645523,670.579407 209.807053,674.004395 
	C214.862305,675.894287 220.029694,678.200806 224.231522,681.488831 
	C230.524643,686.413208 230.866150,695.858826 225.933365,702.164551 
	C218.233246,712.007874 198.122696,711.775940 191.058243,701.500183 
	C188.973541,698.467834 188.059082,694.630920 186.499130,690.901611 
	C177.053177,690.901611 167.265701,690.901611 157.084595,690.901611 
	C157.268555,703.487061 162.231857,713.494080 171.880783,721.210876 
	C189.946777,735.659546 223.145905,736.625427 241.806396,723.014709 
	C254.800598,713.536743 259.895996,700.447021 257.999512,684.591736 
	C256.289673,670.297058 247.397003,661.615051 234.811737,656.468140 
	C225.922638,652.832825 216.570862,650.345154 207.563141,646.977356 
	C202.471741,645.073730 197.414886,642.826538 192.784241,640.008179 
	C187.544464,636.819153 186.127823,631.484314 187.161438,625.598083 
	C188.202301,619.670410 191.693146,615.774658 197.455460,613.919006 
	C210.552780,609.700989 220.380020,614.913391 226.394333,629.048096 
	C236.581070,629.048096 246.629395,629.048096 256.861969,629.048096 
	C255.327438,612.229919 247.188599,600.443542 232.041443,594.124878 
	C216.730927,587.738037 200.974930,587.710327 184.448730,592.979126 
M370.430878,731.084961 
	C372.855988,731.084961 375.281097,731.084961 377.536560,731.084961 
	C377.536560,723.006714 377.536560,715.614563 377.536560,707.779480 
	C359.777313,707.779480 342.384155,707.779480 325.290039,707.779480 
	C325.290039,695.414185 325.290039,683.508789 325.290039,671.259888 
	C340.907379,671.259888 356.172058,671.259888 371.610291,671.259888 
	C371.610291,663.685852 371.610291,656.470581 371.610291,648.828430 
	C355.916992,648.828430 340.513245,648.828430 325.160309,648.828430 
	C325.160309,637.134094 325.160309,625.870972 325.160309,614.119629 
	C342.766846,614.119629 360.154846,614.119629 377.613495,614.119629 
	C377.613495,606.229919 377.613495,598.835083 377.613495,591.331421 
	C350.580353,591.331421 323.838898,591.331421 296.881012,591.331421 
	C296.881012,637.941101 296.881012,684.314819 296.881012,731.084961 
	C321.218018,731.084961 345.333771,731.084961 370.430878,731.084961 
M944.965576,868.500000 
	C944.965576,847.423828 944.965576,826.347717 944.965576,805.315796 
	C937.545898,805.315796 930.799622,805.315796 923.351685,805.315796 
	C923.351685,828.497192 923.351685,851.428711 923.351685,874.360229 
	C921.206787,872.772522 919.982971,871.055298 918.822876,869.296082 
	C905.456909,849.028320 892.121887,828.739868 878.694397,808.512939 
	C877.779907,807.135376 876.238525,805.294800 874.905640,805.223511 
	C868.475342,804.879761 862.016418,805.068787 855.364136,805.068787 
	C855.364136,840.253418 855.364136,874.965881 855.364136,909.774170 
	C862.485779,909.774170 869.363037,909.774170 876.742554,909.774170 
	C876.742554,886.615479 876.742554,863.768555 876.742554,839.455872 
	C878.587830,842.071228 879.626892,843.464478 880.583679,844.912048 
	C894.154541,865.443970 907.695007,885.995972 921.318787,906.492737 
	C922.248901,907.892029 923.731995,909.843140 925.044800,909.913452 
	C931.610535,910.264954 938.205200,910.074280 944.965576,910.074280 
	C944.965576,896.114441 944.965576,882.807251 944.965576,868.500000 
M1016.619141,884.990662 
	C1004.869446,874.421387 1002.935974,861.048645 1006.432190,846.618835 
	C1009.334656,834.639526 1017.122803,826.576782 1029.385254,824.292419 
	C1041.326904,822.067871 1052.326294,824.089600 1059.967407,835.024780 
	C1060.606323,835.939209 1061.985229,836.853699 1063.039917,836.877014 
	C1070.307983,837.037842 1077.581421,836.961670 1085.410889,836.961670 
	C1082.525879,827.775208 1077.892212,820.462769 1070.701294,814.943665 
	C1056.193604,803.808899 1039.686646,801.465942 1022.427063,805.659546 
	C992.004089,813.051453 975.794006,844.553589 985.889709,875.570068 
	C995.191589,904.147461 1027.820679,918.853699 1056.630615,907.453430 
	C1079.192261,898.525696 1089.976807,879.327515 1087.682861,851.946167 
	C1068.918091,851.946167 1050.136597,851.946167 1031.413330,851.946167 
	C1031.413330,857.388367 1031.413330,862.620056 1031.413330,868.075439 
	C1043.378418,868.075439 1054.992920,868.075439 1066.869141,868.075439 
	C1064.661987,878.247253 1059.598633,886.035156 1049.931030,889.599304 
	C1038.492676,893.816345 1027.360352,892.689392 1016.619141,884.990662 
M591.518921,591.208740 
	C587.564758,591.208740 583.610657,591.208740 579.416443,591.208740 
	C579.416443,599.093262 579.416443,606.471924 579.416443,614.269653 
	C591.740173,614.269653 603.821594,614.269653 616.416382,614.269653 
	C616.416382,653.403320 616.416382,692.121887 616.416382,730.698975 
	C626.165405,730.698975 635.385864,730.698975 644.918030,730.698975 
	C644.918030,691.710571 644.918030,653.116638 644.918030,614.174377 
	C657.349121,614.174377 669.461304,614.174377 681.624146,614.174377 
	C681.624146,606.417664 681.624146,599.015503 681.624146,591.208740 
	C651.728333,591.208740 622.121033,591.208740 591.518921,591.208740 
M219.834503,808.674500 
	C200.659271,802.393250 180.968124,806.289368 161.424622,804.959045 
	C161.424622,840.418823 161.424622,875.120178 161.424622,909.106567 
	C177.839661,909.106567 194.107727,910.544861 210.017700,908.771057 
	C234.176682,906.077698 250.342590,888.598633 252.833511,865.643799 
	C255.772324,838.561401 244.136627,818.101624 219.834503,808.674500 
M545.519897,805.062439 
	C541.866089,805.062439 538.212341,805.062439 534.394653,805.062439 
	C521.835693,840.050232 509.348175,874.838928 496.792816,909.816650 
	C504.506836,909.816650 511.759155,909.816650 519.123779,909.816650 
	C521.109192,904.136047 522.843628,898.586121 525.061768,893.236694 
	C525.621887,891.885986 527.710632,890.333252 529.125854,890.304688 
	C540.785278,890.069214 552.452759,890.264221 564.114685,890.102356 
	C566.856018,890.064270 567.829224,891.193298 568.580200,893.561035 
	C570.327698,899.070435 572.345337,904.494080 574.183350,909.751831 
	C581.743286,909.751831 588.942017,909.751831 596.484253,909.751831 
	C595.998596,908.256348 595.673828,907.158142 595.287781,906.081909 
	C584.637756,876.396484 573.983276,846.712585 563.325439,817.029907 
	C559.027893,805.061096 559.023499,805.062683 545.519897,805.062439 
M312.573090,881.487061 
	C312.573090,876.198730 312.573090,870.910400 312.573090,865.214600 
	C324.590424,865.214600 336.023499,865.214600 347.436096,865.214600 
	C347.436096,859.391113 347.436096,853.999878 347.436096,848.140503 
	C335.679199,848.140503 324.264923,848.140503 312.856781,848.140503 
	C312.856781,839.413391 312.856781,831.165405 312.856781,822.411621 
	C326.032227,822.411621 338.934692,822.411621 351.726288,822.411621 
	C351.726288,816.329468 351.726288,810.766235 351.726288,805.299133 
	C331.430115,805.299133 311.501099,805.299133 291.370148,805.299133 
	C291.370148,840.258240 291.370148,874.976868 291.370148,909.832764 
	C311.675232,909.832764 331.733002,909.832764 351.739624,909.832764 
	C351.739624,904.013672 351.739624,898.461426 351.739624,892.642090 
	C338.599640,892.642090 325.810608,892.642090 312.573059,892.642090 
	C312.573059,889.070312 312.573059,885.776123 312.573090,881.487061 
M717.653870,604.523438 
	C717.653870,646.618958 717.653870,688.714417 717.653870,730.704102 
	C727.375732,730.704102 736.595947,730.704102 745.651611,730.704102 
	C745.651611,684.088074 745.651611,637.854065 745.651611,591.431885 
	C736.288940,591.431885 727.209412,591.431885 717.653931,591.431885 
	C717.653931,595.598145 717.653931,599.567078 717.653870,604.523438 
M416.419342,832.498291 
	C416.419342,858.275330 416.419342,884.052368 416.419342,909.721863 
	C423.906250,909.721863 430.804657,909.721863 438.120667,909.721863 
	C438.120667,880.442566 438.120667,851.536011 438.120667,822.273438 
	C447.506714,822.273438 456.462372,822.273438 465.383179,822.273438 
	C465.383179,816.363464 465.383179,810.825928 465.383179,805.305542 
	C439.683441,805.305542 414.394775,805.305542 388.961578,805.305542 
	C388.961578,811.064392 388.961578,816.632019 388.961578,822.648926 
	C398.195404,822.648926 407.111206,822.648926 416.419373,822.648926 
	C416.419373,825.896973 416.419373,828.695374 416.419342,832.498291 
M698.798523,909.920227 
	C717.061157,909.920227 735.323792,909.920227 753.631592,909.920227 
	C753.631592,904.198792 753.631592,898.811584 753.631592,892.897583 
	C742.111084,892.897583 730.896790,892.897583 719.371216,892.897583 
	C719.371216,863.424377 719.371216,834.482361 719.371216,805.460938 
	C712.154236,805.460938 705.275330,805.460938 698.180969,805.460938 
	C698.180969,840.265686 698.180969,874.727234 698.798523,909.920227 
M651.285156,910.101013 
	C652.676331,909.983765 654.067566,909.866455 655.292480,909.763184 
	C655.292480,874.630127 655.292480,840.052368 655.292480,805.479736 
	C648.108948,805.479736 641.226562,805.479736 634.310425,805.479736 
	C634.310425,840.426514 634.310425,875.006531 634.310425,910.101013 
	C639.771240,910.101013 645.048706,910.101013 651.285156,910.101013 
M790.113647,817.517578 
	C790.113647,848.263306 790.113647,879.008972 790.113647,909.759949 
	C797.533203,909.759949 804.411011,909.759949 811.206543,909.759949 
	C811.206543,874.720215 811.206543,840.022949 811.206543,805.386353 
	C804.058777,805.386353 797.296204,805.386353 790.113647,805.386353 
	C790.113647,809.273560 790.113647,812.900269 790.113647,817.517578 
z"/>
<path fill="#FFFFFF" opacity="1.000000" stroke="none" 
	d="
M1198.411987,907.756592 
	C1182.322876,903.396423 1168.236816,896.548157 1156.309204,885.049927 
	C1146.574829,875.665894 1140.299805,864.416565 1134.958008,852.328979 
	C1130.204590,841.572510 1127.025269,830.493469 1124.680298,818.901062 
	C1121.636841,803.856201 1118.888184,788.925171 1118.978760,773.535400 
	C1119.073853,757.374878 1119.130981,741.211975 1118.956421,725.052795 
	C1118.828613,713.228271 1120.323853,701.637146 1122.968018,690.156738 
	C1125.300293,680.030090 1126.896729,669.654663 1130.180298,659.845032 
	C1135.042847,645.318787 1142.402222,632.149597 1152.716675,620.377197 
	C1160.953979,610.975708 1171.071045,604.625610 1181.428345,598.516113 
	C1186.373901,595.598816 1192.529297,594.677856 1198.190918,593.039917 
	C1211.694336,589.133301 1225.549438,588.786072 1239.483398,588.956299 
	C1252.207397,589.111694 1264.348511,591.476807 1276.367432,595.820984 
	C1287.187256,599.731812 1296.100220,606.052979 1304.885986,613.177307 
	C1316.835693,622.867188 1324.164185,635.609497 1329.777466,649.338623 
	C1332.649536,656.363098 1333.298096,664.290955 1335.015137,671.795959 
	C1335.751587,675.015015 1336.649780,678.197021 1337.630005,681.999939 
	C1329.090210,681.999939 1321.459961,681.999878 1313.829712,681.999939 
	C1299.168091,682.000000 1284.506104,681.947937 1269.845093,682.042297 
	C1266.760864,682.062134 1265.790771,681.315063 1264.752319,677.898254 
	C1261.402222,666.875000 1257.010376,656.003113 1244.149536,652.694397 
	C1232.693237,649.747192 1221.255859,649.795471 1210.681519,655.859192 
	C1204.649780,659.318115 1199.973755,664.413269 1197.055176,670.836548 
	C1193.465454,678.737183 1190.782471,686.844177 1189.877563,695.625549 
	C1188.570557,708.308838 1186.531982,720.916687 1184.885010,732.973938 
	C1189.515259,728.870483 1194.512085,724.867249 1198.995361,720.353821 
	C1203.874756,715.441772 1210.079102,712.990601 1216.158081,710.459900 
	C1229.618652,704.856445 1243.827148,702.950378 1258.299805,704.082458 
	C1270.654785,705.048889 1282.954712,706.865662 1294.017822,713.043579 
	C1300.759521,716.808289 1308.067017,720.107788 1313.692383,725.195129 
	C1322.149048,732.842896 1329.996460,741.382263 1334.165649,752.480835 
	C1337.014648,760.064758 1340.544312,767.435486 1342.806274,775.182861 
	C1344.382568,780.581543 1344.841797,786.453186 1344.884766,792.120483 
	C1344.961182,802.198120 1344.755493,812.316895 1343.882690,822.350098 
	C1343.216919,830.000916 1342.421753,837.955627 1339.744873,845.042664 
	C1335.681152,855.801819 1330.879028,866.384216 1323.220703,875.399353 
	C1315.156860,884.892273 1305.980957,892.993958 1294.854492,898.470337 
	C1287.198486,902.238403 1279.134033,905.381653 1270.964966,907.855530 
	C1257.688965,911.875916 1243.869263,912.260193 1230.109619,911.914124 
	C1222.265015,911.716797 1214.430176,910.772339 1206.616089,909.930359 
	C1203.967285,909.645020 1201.395996,908.641907 1198.411987,907.756592 
M1267.999023,829.601685 
	C1269.000488,827.241211 1270.227417,824.948669 1270.963989,822.508240 
	C1273.909546,812.747437 1273.534912,802.840332 1272.006714,792.896057 
	C1270.150269,780.816589 1257.684570,768.001282 1245.960449,765.980530 
	C1232.453491,763.652588 1219.403809,764.434265 1207.620850,772.117432 
	C1201.050781,776.401489 1195.607178,782.297485 1194.210083,790.124451 
	C1192.891846,797.509888 1193.335571,805.209534 1192.999268,812.770691 
	C1192.561768,822.607849 1197.208252,830.281189 1203.632568,837.053589 
	C1209.797119,843.552185 1218.222046,845.898987 1226.526611,846.707153 
	C1233.172119,847.353821 1239.990234,847.076660 1247.001831,845.446167 
	C1256.676392,843.196411 1262.314087,837.203125 1267.999023,829.601685 
z"/>
<path fill="#FEFEFE" opacity="1.000000" stroke="none" 
	d="
M1051.017700,631.000000 
	C1051.017700,617.538391 1051.017700,604.576843 1051.017700,591.356445 
	C1060.434814,591.356445 1069.506104,591.356445 1078.873047,591.356445 
	C1078.873047,637.804321 1078.873047,684.183044 1078.873047,731.079529 
	C1070.104736,731.079529 1061.324341,731.249634 1052.563843,730.908203 
	C1051.141968,730.852844 1049.489868,728.741943 1048.481323,727.224243 
	C1029.332397,698.410278 1010.264954,669.542236 991.177307,640.687622 
	C990.384399,639.489014 989.561279,638.310425 988.171997,636.270386 
	C988.171997,668.291382 988.171997,699.312561 988.171997,730.708801 
	C978.582947,730.708801 969.360474,730.708801 959.894104,730.708801 
	C959.894104,684.388794 959.894104,637.975403 959.894104,591.095703 
	C968.655579,591.095703 977.272217,590.931946 985.870728,591.253784 
	C987.334839,591.308655 989.109375,593.186096 990.085938,594.656250 
	C1009.135498,623.335083 1028.087036,652.079041 1047.062500,680.807068 
	C1048.107666,682.389526 1049.186035,683.949890 1051.017700,686.656494 
	C1051.017700,667.339600 1051.017700,649.419800 1051.017700,631.000000 
z"/>
<path fill="#FCFCFC" opacity="1.000000" stroke="none" 
	d="
M792.275513,700.713745 
	C768.519714,663.735840 781.379028,605.598694 833.696655,591.707397 
	C873.967468,581.014832 913.271240,604.575562 922.368286,644.717407 
	C931.664673,685.738953 906.456055,724.738831 865.065613,731.399109 
	C835.142883,736.214050 810.332581,726.285950 792.275513,700.713745 
M837.808228,704.973206 
	C862.119141,712.160889 884.383484,702.127869 891.705750,679.890625 
	C893.994141,672.940979 895.136902,665.166260 894.779175,657.868530 
	C892.962891,620.815857 863.441162,609.178833 838.088318,617.106628 
	C820.726685,622.535645 812.567078,635.928528 810.398865,653.237366 
	C807.723694,674.593018 815.387512,696.681152 837.808228,704.973206 
z"/>
<path fill="#FCFCFC" opacity="1.000000" stroke="none" 
	d="
M531.379883,607.622192 
	C539.461060,615.351440 545.018127,624.202148 548.340210,634.962219 
	C537.975403,634.962219 528.153687,635.032043 518.335754,634.869263 
	C517.175293,634.850037 515.562073,633.836060 514.958069,632.811768 
	C506.456635,618.395142 493.257935,613.643250 477.534363,615.339233 
	C460.281311,617.200317 448.724457,626.968445 443.595032,643.486206 
	C438.755219,659.071289 439.665649,674.480286 448.235077,688.746094 
	C463.043457,713.398132 502.359772,712.996155 514.794495,689.368408 
	C515.354370,688.304565 516.916870,687.118225 518.032104,687.098450 
	C527.972900,686.922180 537.918091,686.995850 548.380249,686.995850 
	C543.284424,702.485046 534.359192,714.189148 520.828308,722.358398 
	C486.059692,743.349854 425.584778,733.202942 413.664124,677.578186 
	C404.851501,636.456299 427.229004,600.422729 464.384125,591.813721 
	C488.931000,586.126221 511.660187,590.263123 531.379883,607.622192 
z"/>
<path fill="#FCFCFC" opacity="1.000000" stroke="none" 
	d="
M184.821960,592.854370 
	C200.974930,587.710327 216.730927,587.738037 232.041443,594.124878 
	C247.188599,600.443542 255.327438,612.229919 256.861969,629.048096 
	C246.629395,629.048096 236.581070,629.048096 226.394333,629.048096 
	C220.380020,614.913391 210.552780,609.700989 197.455460,613.919006 
	C191.693146,615.774658 188.202301,619.670410 187.161438,625.598083 
	C186.127823,631.484314 187.544464,636.819153 192.784241,640.008179 
	C197.414886,642.826538 202.471741,645.073730 207.563141,646.977356 
	C216.570862,650.345154 225.922638,652.832825 234.811737,656.468140 
	C247.397003,661.615051 256.289673,670.297058 257.999512,684.591736 
	C259.895996,700.447021 254.800598,713.536743 241.806396,723.014709 
	C223.145905,736.625427 189.946777,735.659546 171.880783,721.210876 
	C162.231857,713.494080 157.268555,703.487061 157.084595,690.901611 
	C167.265701,690.901611 177.053177,690.901611 186.499130,690.901611 
	C188.059082,694.630920 188.973541,698.467834 191.058243,701.500183 
	C198.122696,711.775940 218.233246,712.007874 225.933365,702.164551 
	C230.866150,695.858826 230.524643,686.413208 224.231522,681.488831 
	C220.029694,678.200806 214.862305,675.894287 209.807053,674.004395 
	C200.645523,670.579407 191.076813,668.221619 181.981049,664.647339 
	C165.252380,658.073730 157.223740,646.694580 157.398407,630.217163 
	C157.581085,612.983032 165.867599,600.927612 181.654099,594.030457 
	C182.564896,593.632568 183.516251,593.327393 184.821960,592.854370 
z"/>
<path fill="#FEFEFE" opacity="1.000000" stroke="none" 
	d="
M369.940186,731.084961 
	C345.333771,731.084961 321.218018,731.084961 296.881012,731.084961 
	C296.881012,684.314819 296.881012,637.941101 296.881012,591.331421 
	C323.838898,591.331421 350.580353,591.331421 377.613495,591.331421 
	C377.613495,598.835083 377.613495,606.229919 377.613495,614.119629 
	C360.154846,614.119629 342.766846,614.119629 325.160309,614.119629 
	C325.160309,625.870972 325.160309,637.134094 325.160309,648.828430 
	C340.513245,648.828430 355.916992,648.828430 371.610291,648.828430 
	C371.610291,656.470581 371.610291,663.685852 371.610291,671.259888 
	C356.172058,671.259888 340.907379,671.259888 325.290039,671.259888 
	C325.290039,683.508789 325.290039,695.414185 325.290039,707.779480 
	C342.384155,707.779480 359.777313,707.779480 377.536560,707.779480 
	C377.536560,715.614563 377.536560,723.006714 377.536560,731.084961 
	C375.281097,731.084961 372.855988,731.084961 369.940186,731.084961 
z"/>
<path fill="#FBFBFB" opacity="1.000000" stroke="none" 
	d="
M944.965576,869.000000 
	C944.965576,882.807251 944.965576,896.114441 944.965576,910.074280 
	C938.205200,910.074280 931.610535,910.264954 925.044800,909.913452 
	C923.731995,909.843140 922.248901,907.892029 921.318787,906.492737 
	C907.695007,885.995972 894.154541,865.443970 880.583679,844.912048 
	C879.626892,843.464478 878.587830,842.071228 876.742554,839.455872 
	C876.742554,863.768555 876.742554,886.615479 876.742554,909.774170 
	C869.363037,909.774170 862.485779,909.774170 855.364136,909.774170 
	C855.364136,874.965881 855.364136,840.253418 855.364136,805.068787 
	C862.016418,805.068787 868.475342,804.879761 874.905640,805.223511 
	C876.238525,805.294800 877.779907,807.135376 878.694397,808.512939 
	C892.121887,828.739868 905.456909,849.028320 918.822876,869.296082 
	C919.982971,871.055298 921.206787,872.772522 923.351685,874.360229 
	C923.351685,851.428711 923.351685,828.497192 923.351685,805.315796 
	C930.799622,805.315796 937.545898,805.315796 944.965576,805.315796 
	C944.965576,826.347717 944.965576,847.423828 944.965576,869.000000 
z"/>
<path fill="#FCFCFC" opacity="1.000000" stroke="none" 
	d="
M1016.904541,885.218994 
	C1027.360352,892.689392 1038.492676,893.816345 1049.931030,889.599304 
	C1059.598633,886.035156 1064.661987,878.247253 1066.869141,868.075439 
	C1054.992920,868.075439 1043.378418,868.075439 1031.413330,868.075439 
	C1031.413330,862.620056 1031.413330,857.388367 1031.413330,851.946167 
	C1050.136597,851.946167 1068.918091,851.946167 1087.682861,851.946167 
	C1089.976807,879.327515 1079.192261,898.525696 1056.630615,907.453430 
	C1027.820679,918.853699 995.191589,904.147461 985.889709,875.570068 
	C975.794006,844.553589 992.004089,813.051453 1022.427063,805.659546 
	C1039.686646,801.465942 1056.193604,803.808899 1070.701294,814.943665 
	C1077.892212,820.462769 1082.525879,827.775208 1085.410889,836.961670 
	C1077.581421,836.961670 1070.307983,837.037842 1063.039917,836.877014 
	C1061.985229,836.853699 1060.606323,835.939209 1059.967407,835.024780 
	C1052.326294,824.089600 1041.326904,822.067871 1029.385254,824.292419 
	C1017.122803,826.576782 1009.334656,834.639526 1006.432190,846.618835 
	C1002.935974,861.048645 1004.869446,874.421387 1016.904541,885.218994 
z"/>
<path fill="#F9F9F9" opacity="1.000000" stroke="none" 
	d="
M592.016357,591.208740 
	C622.121033,591.208740 651.728333,591.208740 681.624146,591.208740 
	C681.624146,599.015503 681.624146,606.417664 681.624146,614.174377 
	C669.461304,614.174377 657.349121,614.174377 644.918030,614.174377 
	C644.918030,653.116638 644.918030,691.710571 644.918030,730.698975 
	C635.385864,730.698975 626.165405,730.698975 616.416382,730.698975 
	C616.416382,692.121887 616.416382,653.403320 616.416382,614.269653 
	C603.821594,614.269653 591.740173,614.269653 579.416443,614.269653 
	C579.416443,606.471924 579.416443,599.093262 579.416443,591.208740 
	C583.610657,591.208740 587.564758,591.208740 592.016357,591.208740 
z"/>
<path fill="#FAFAFA" opacity="1.000000" stroke="none" 
	d="
M220.206848,808.801758 
	C244.136627,818.101624 255.772324,838.561401 252.833511,865.643799 
	C250.342590,888.598633 234.176682,906.077698 210.017700,908.771057 
	C194.107727,910.544861 177.839661,909.106567 161.424622,909.106567 
	C161.424622,875.120178 161.424622,840.418823 161.424622,804.959045 
	C180.968124,806.289368 200.659271,802.393250 220.206848,808.801758 
M227.854248,839.947632 
	C223.676712,831.734924 217.149124,826.101624 208.108444,824.619080 
	C199.833481,823.262146 191.345749,823.202698 182.853943,822.564087 
	C182.853943,846.304260 182.853943,869.017456 182.853943,891.945068 
	C189.105423,891.945068 195.102219,892.298035 201.043930,891.875793 
	C216.065460,890.808228 226.363220,883.202759 229.748398,870.490967 
	C232.417252,860.469055 232.260254,850.412109 227.854248,839.947632 
z"/>
<path fill="#FCFCFC" opacity="1.000000" stroke="none" 
	d="
M546.010376,805.062439 
	C559.023499,805.062683 559.027893,805.061096 563.325439,817.029907 
	C573.983276,846.712585 584.637756,876.396484 595.287781,906.081909 
	C595.673828,907.158142 595.998596,908.256348 596.484253,909.751831 
	C588.942017,909.751831 581.743286,909.751831 574.183350,909.751831 
	C572.345337,904.494080 570.327698,899.070435 568.580200,893.561035 
	C567.829224,891.193298 566.856018,890.064270 564.114685,890.102356 
	C552.452759,890.264221 540.785278,890.069214 529.125854,890.304688 
	C527.710632,890.333252 525.621887,891.885986 525.061768,893.236694 
	C522.843628,898.586121 521.109192,904.136047 519.123779,909.816650 
	C511.759155,909.816650 504.506836,909.816650 496.792816,909.816650 
	C509.348175,874.838928 521.835693,840.050232 534.394653,805.062439 
	C538.212341,805.062439 541.866089,805.062439 546.010376,805.062439 
M535.828003,873.100403 
	C544.212219,873.100403 552.596497,873.100403 561.588013,873.100403 
	C556.543213,858.571411 551.759338,844.793823 546.629272,830.019226 
	C541.450134,845.030701 536.675537,858.869690 531.765808,873.100098 
	C533.267639,873.100098 534.089905,873.100098 535.828003,873.100403 
z"/>
<path fill="#FBFBFB" opacity="1.000000" stroke="none" 
	d="
M312.573059,881.984497 
	C312.573059,885.776123 312.573059,889.070312 312.573059,892.642090 
	C325.810608,892.642090 338.599640,892.642090 351.739624,892.642090 
	C351.739624,898.461426 351.739624,904.013672 351.739624,909.832764 
	C331.733002,909.832764 311.675232,909.832764 291.370148,909.832764 
	C291.370148,874.976868 291.370148,840.258240 291.370148,805.299133 
	C311.501099,805.299133 331.430115,805.299133 351.726288,805.299133 
	C351.726288,810.766235 351.726288,816.329468 351.726288,822.411621 
	C338.934692,822.411621 326.032227,822.411621 312.856781,822.411621 
	C312.856781,831.165405 312.856781,839.413391 312.856781,848.140503 
	C324.264923,848.140503 335.679199,848.140503 347.436096,848.140503 
	C347.436096,853.999878 347.436096,859.391113 347.436096,865.214600 
	C336.023499,865.214600 324.590424,865.214600 312.573090,865.214600 
	C312.573090,870.910400 312.573090,876.198730 312.573059,881.984497 
z"/>
<path fill="#FDFDFD" opacity="1.000000" stroke="none" 
	d="
M717.653931,604.029663 
	C717.653931,599.567078 717.653931,595.598145 717.653931,591.431885 
	C727.209412,591.431885 736.288940,591.431885 745.651611,591.431885 
	C745.651611,637.854065 745.651611,684.088074 745.651611,730.704102 
	C736.595947,730.704102 727.375732,730.704102 717.653870,730.704102 
	C717.653870,688.714417 717.653870,646.618958 717.653931,604.029663 
z"/>
<path fill="#F9F9F9" opacity="1.000000" stroke="none" 
	d="
M416.419373,831.996033 
	C416.419373,828.695374 416.419373,825.896973 416.419373,822.648926 
	C407.111206,822.648926 398.195404,822.648926 388.961578,822.648926 
	C388.961578,816.632019 388.961578,811.064392 388.961578,805.305542 
	C414.394775,805.305542 439.683441,805.305542 465.383179,805.305542 
	C465.383179,810.825928 465.383179,816.363464 465.383179,822.273438 
	C456.462372,822.273438 447.506714,822.273438 438.120667,822.273438 
	C438.120667,851.536011 438.120667,880.442566 438.120667,909.721863 
	C430.804657,909.721863 423.906250,909.721863 416.419342,909.721863 
	C416.419342,884.052368 416.419342,858.275330 416.419373,831.996033 
z"/>
<path fill="#F8F8F8" opacity="1.000000" stroke="none" 
	d="
M698.489746,909.554565 
	C698.180969,874.727234 698.180969,840.265686 698.180969,805.460938 
	C705.275330,805.460938 712.154236,805.460938 719.371216,805.460938 
	C719.371216,834.482361 719.371216,863.424377 719.371216,892.897583 
	C730.896790,892.897583 742.111084,892.897583 753.631592,892.897583 
	C753.631592,898.811584 753.631592,904.198792 753.631592,909.920227 
	C735.323792,909.920227 717.061157,909.920227 698.489746,909.554565 
z"/>
<path fill="#F7F7F7" opacity="1.000000" stroke="none" 
	d="
M650.805664,910.101013 
	C645.048706,910.101013 639.771240,910.101013 634.310425,910.101013 
	C634.310425,875.006531 634.310425,840.426514 634.310425,805.479736 
	C641.226562,805.479736 648.108948,805.479736 655.292480,805.479736 
	C655.292480,840.052368 655.292480,874.630127 655.292480,909.763184 
	C654.067566,909.866455 652.676331,909.983765 650.805664,910.101013 
z"/>
<path fill="#F7F7F7" opacity="1.000000" stroke="none" 
	d="
M790.113647,817.022278 
	C790.113647,812.900269 790.113647,809.273560 790.113647,805.386353 
	C797.296204,805.386353 804.058777,805.386353 811.206543,805.386353 
	C811.206543,840.022949 811.206543,874.720215 811.206543,909.759949 
	C804.411011,909.759949 797.533203,909.759949 790.113647,909.759949 
	C790.113647,879.008972 790.113647,848.263306 790.113647,817.022278 
z"/>
<path fill="#000000" opacity="1.000000" stroke="none" 
	d="
M1267.982178,829.974426 
	C1262.314087,837.203125 1256.676392,843.196411 1247.001831,845.446167 
	C1239.990234,847.076660 1233.172119,847.353821 1226.526611,846.707153 
	C1218.222046,845.898987 1209.797119,843.552185 1203.632568,837.053589 
	C1197.208252,830.281189 1192.561768,822.607849 1192.999268,812.770691 
	C1193.335571,805.209534 1192.891846,797.509888 1194.210083,790.124451 
	C1195.607178,782.297485 1201.050781,776.401489 1207.620850,772.117432 
	C1219.403809,764.434265 1232.453491,763.652588 1245.960449,765.980530 
	C1257.684570,768.001282 1270.150269,780.816589 1272.006714,792.896057 
	C1273.534912,802.840332 1273.909546,812.747437 1270.963989,822.508240 
	C1270.227417,824.948669 1269.000488,827.241211 1267.982178,829.974426 
z"/>
<path fill="#010101" opacity="1.000000" stroke="none" 
	d="
M837.426697,704.855530 
	C815.387512,696.681152 807.723694,674.593018 810.398865,653.237366 
	C812.567078,635.928528 820.726685,622.535645 838.088318,617.106628 
	C863.441162,609.178833 892.962891,620.815857 894.779175,657.868530 
	C895.136902,665.166260 893.994141,672.940979 891.705750,679.890625 
	C884.383484,702.127869 862.119141,712.160889 837.426697,704.855530 
z"/>
<path fill="#010101" opacity="1.000000" stroke="none" 
	d="
M227.984131,840.308777 
	C232.260254,850.412109 232.417252,860.469055 229.748398,870.490967 
	C226.363220,883.202759 216.065460,890.808228 201.043930,891.875793 
	C195.102219,892.298035 189.105423,891.945068 182.853943,891.945068 
	C182.853943,869.017456 182.853943,846.304260 182.853943,822.564087 
	C191.345749,823.202698 199.833481,823.262146 208.108444,824.619080 
	C217.149124,826.101624 223.676712,831.734924 227.984131,840.308777 
z"/>
<path fill="#040404" opacity="1.000000" stroke="none" 
	d="
M535.370117,873.100220 
	C534.089905,873.100098 533.267639,873.100098 531.765808,873.100098 
	C536.675537,858.869690 541.450134,845.030701 546.629272,830.019226 
	C551.759338,844.793823 556.543213,858.571411 561.588013,873.100403 
	C552.596497,873.100403 544.212219,873.100403 535.370117,873.100220 
z"/>
</svg>