<?xml version="1.0" encoding="UTF-8"?>
<svg version="1.1" xmlns="http://www.w3.org/2000/svg" width="1500" height="1500">
<path d="M0 0 C495 0 990 0 1500 0 C1500 495 1500 990 1500 1500 C1005 1500 510 1500 0 1500 C0 1005 0 510 0 0 Z " fill="#000000" transform="translate(0,0)"/>
<path d="M0 0 C1.32 0 2.64 0 4 0 C12.19799851 18.36411762 20.35254371 36.7459284 28.375 55.1875 C29.79811057 58.45836228 31.22124916 61.72921235 32.64453125 65 C33.00041321 65.81783966 33.35629517 66.63567932 33.72296143 67.478302 C39.66961873 81.13840623 45.65817742 94.78012989 51.66418457 108.41423035 C53.90968089 113.51390734 56.1441653 118.61824191 58.37059021 123.72627258 C59.81460164 127.03518833 61.26564663 130.34098884 62.7182312 133.64614868 C63.39518796 135.19054076 64.06921948 136.73621905 64.74002075 138.28329468 C70.49063608 153.57218799 70.49063608 153.57218799 82 164 C85.37587324 164.43251436 88.72131738 164.42040833 92.12109375 164.3984375 C93.09861099 164.40130768 94.07612823 164.40417786 95.08326721 164.40713501 C97.14674459 164.40917281 99.21024142 164.40366286 101.27368164 164.39111328 C104.42313105 164.37507318 107.57129381 164.39096304 110.72070312 164.41015625 C112.72916949 164.40817343 114.73763505 164.40432895 116.74609375 164.3984375 C118.15259438 164.40754654 118.15259438 164.40754654 119.58750916 164.4168396 C124.76133954 164.3615146 128.62452757 164.07134591 133 161 C135.69612419 157.29546407 136.37677729 154.70483081 136.38768005 150.15539551 C136.39758469 148.98618057 136.40748932 147.81696564 136.41769409 146.61231995 C136.41094162 144.70143837 136.41094162 144.70143837 136.40405273 142.75195312 C136.40975814 141.3898818 136.41672306 140.02781525 136.42485046 138.66575623 C136.44277693 134.97361649 136.44161471 131.28171447 136.43590808 127.5895443 C136.43281593 124.50545496 136.43890886 121.42141127 136.44494683 118.33732843 C136.45898831 111.06159823 136.45743351 103.78598547 136.44604492 96.51025391 C136.43455953 89.0069105 136.44864706 81.50392434 136.4754414 74.00062799 C136.49759737 67.55461692 136.50423616 61.10871801 136.49836498 54.66267157 C136.49499446 50.81437974 136.49741674 46.96631701 136.51461601 43.11805725 C136.53008202 39.49981206 136.52613414 35.88209639 136.50731087 32.26387215 C136.50186762 30.30513309 136.51614108 28.34637027 136.53100586 26.38768005 C136.52117172 25.21846512 136.51133759 24.04925018 136.50120544 22.84460449 C136.50099616 21.83067375 136.50078688 20.81674301 136.50057125 19.7720871 C135.86549216 16.25511615 134.4275342 14.57170163 132 12 C126.64334188 8.67840414 120.14285346 8.36504662 114 8 C114 6.68 114 5.36 114 4 C126.92695904 3.95348459 139.85389788 3.9180337 152.78092384 3.89637566 C158.78464355 3.88597644 164.78830563 3.87188836 170.79199219 3.84912109 C176.59511246 3.82725428 182.39817759 3.81540239 188.20133591 3.81024551 C190.40589642 3.80657446 192.61045421 3.79940643 194.814991 3.78853989 C238.36050036 3.58259953 238.36050036 3.58259953 254.44140625 18.22265625 C264.40039282 28.57540835 267.50405436 39.3787651 267.27734375 53.3984375 C266.81410601 64.71434447 261.31881635 73.12298467 253.25 80.6875 C247.01541941 85.90881224 239.86816695 89.11848182 232 91 C233.49534296 95.44449157 235.94113512 98.87153286 238.75 102.5625 C243.25575566 108.59285039 247.63391081 114.69876153 251.9375 120.875 C252.52644043 121.71861084 253.11538086 122.56222168 253.72216797 123.43139648 C256.03772729 126.74926491 258.35128143 130.0685262 260.66357422 133.38867188 C272.28002965 152.37969424 272.28002965 152.37969424 290 164 C293.51544218 164.2869287 293.51544218 164.2869287 297.29052734 164.22705078 C297.99366058 164.22734283 298.69679382 164.22763489 299.42123413 164.22793579 C301.72626442 164.22655162 304.03096426 164.21103397 306.3359375 164.1953125 C307.94161808 164.19157912 309.54730094 164.18873368 311.15298462 164.18673706 C315.36487189 164.17912621 319.57661971 164.15949979 323.78845215 164.1373291 C328.09202183 164.1168156 332.3956142 164.1077236 336.69921875 164.09765625 C345.13287626 164.07625134 353.56642075 164.04214639 362 164 C361.31329224 163.59121109 360.62658447 163.18242218 359.91906738 162.76124573 C359.01829468 162.2232988 358.11752197 161.68535187 357.18945312 161.13110352 C356.29649536 160.59856461 355.4035376 160.0660257 354.48352051 159.51734924 C339.30078726 150.24119922 330.63329709 137.02737984 324 121 C323.66226562 120.20464844 323.32453125 119.40929687 322.9765625 118.58984375 C316.01694099 101.25969711 316.34487728 78.31201857 323 61 C323.56074219 59.42992187 323.56074219 59.42992187 324.1328125 57.828125 C333.00917601 34.66728247 350.99556911 17.06149488 373.16796875 6.57421875 C388.21838027 0.16786381 402.79679956 -0.9050834 419 0 C420.22976563 0.06058594 421.45953125 0.12117187 422.7265625 0.18359375 C431.74691906 1.072461 440.16657448 4.21155975 448.65209961 7.25585938 C450.13915405 7.78276367 450.13915405 7.78276367 451.65625 8.3203125 C452.54119141 8.64273926 453.42613281 8.96516602 454.33789062 9.29736328 C458.41058951 10.37231077 461.75754834 10.49120182 465.6875 8.9375 C468.84324207 6.29349989 469.61873802 3.85299395 471 0 C472.65 0 474.3 0 476 0 C476 18.81 476 37.62 476 57 C474.35 57 472.7 57 471 57 C470.58105469 55.84371094 470.16210938 54.68742188 469.73046875 53.49609375 C463.81288496 37.75857572 456.4103704 24.7176525 440.86083984 16.82958984 C427.5165769 10.88052064 413.82114765 10.59325727 400 15 C386.11917796 20.7898616 377.24679477 30.60779961 371 44 C369.3435958 48.27524508 368.11122304 52.55510785 367 57 C366.70222656 58.00546875 366.40445312 59.0109375 366.09765625 60.046875 C359.35714939 85.51791474 363.48291088 118.51790401 376.375 141.4453125 C382.34890313 151.02303763 390.81643072 157.81771486 401.8125 160.75 C420.29487091 164.28917741 437.21881562 161.11428624 453 151 C457.36512933 147.71381023 461.19004334 143.90259999 465 140 C467.33333333 137.66666667 469.66666667 135.33333333 472 133 C472.33 133 472.66 133 473 133 C474.51055141 145.73898356 474.51055141 145.73898356 471.16015625 150.75390625 C466.89841266 154.62515833 462.1412611 157.55237758 457.29614258 160.6328125 C456.30463699 161.2633252 455.31313141 161.89383789 454.2915802 162.54345703 C453.53535873 163.02411621 452.77913727 163.50477539 452 164 C461.80552475 164.04638693 471.61102329 164.08190153 481.41663551 164.10362434 C485.97001655 164.11405139 490.52332239 164.12819091 495.07666016 164.15087891 C499.47274894 164.17264573 503.86876549 164.18457674 508.26490402 164.18975449 C509.94019075 164.19344335 511.61547363 164.20064677 513.29072952 164.21146011 C515.64133427 164.22602612 517.99164237 164.22797582 520.34228516 164.22705078 C521.03136963 164.23424133 521.7204541 164.24143188 522.43041992 164.24884033 C526.65289757 164.2309176 530.21785353 163.9448285 534 162 C535.71838978 157.94046626 536.25401171 154.42393542 536.27415466 150.04187012 C536.28412979 148.87272568 536.29410492 147.70358124 536.30438232 146.49900818 C536.305047 145.23025345 536.30571167 143.96149872 536.30639648 142.65429688 C536.31402466 141.29370167 536.32245328 139.93311074 536.33161926 138.57252502 C536.3534999 134.88870221 536.36235385 131.20496236 536.36744571 127.52108192 C536.37109536 125.21773426 536.37733841 122.91440815 536.3844471 120.61106873 C536.40891428 112.57061818 536.42198864 104.53023196 536.42553711 96.48974609 C536.42917555 89.00169544 536.45909961 81.51405385 536.50094169 74.02612829 C536.53564544 67.58943452 536.55108552 61.15287642 536.55178314 54.71608973 C536.55257561 50.87496234 536.56130033 47.03425252 536.58978081 43.19322205 C536.61596522 39.58147278 536.61816554 35.97048735 536.60212517 32.35868645 C536.59944801 30.40607276 536.62148919 28.4534739 536.64431763 26.50099182 C536.73024029 19.39119787 536.73024029 19.39119787 533.61366272 13.24938965 C529.16160778 9.41782935 525.4646739 8.75591256 519.6875 8.375 C518.61886719 8.30023437 517.55023437 8.22546875 516.44921875 8.1484375 C515.64097656 8.09945312 514.83273437 8.05046875 514 8 C514 6.68 514 5.36 514 4 C542.71 4 571.42 4 601 4 C601 5.32 601 6.64 601 8 C600.20335937 8.03738281 599.40671875 8.07476563 598.5859375 8.11328125 C592.68594268 8.47933932 588.16377623 8.87455649 583 12 C582.34 12 581.68 12 581 12 C579.19500191 15.88379497 578.73331305 18.99054845 578.68115234 23.2590332 C578.66128265 24.49994217 578.64141296 25.74085114 578.62094116 27.0193634 C578.60906671 28.36316754 578.59740374 29.70697357 578.5859375 31.05078125 C578.56721502 32.43370201 578.5476408 33.81661147 578.5272522 35.19950867 C578.47603882 38.82766038 578.43635569 42.45584909 578.39910889 46.08416748 C578.35900125 49.79122959 578.3080452 53.49814167 578.2578125 57.20507812 C578.16016031 64.46999443 578.08055963 71.73479353 578 79 C597.14 79 616.28 79 636 79 C635.9323437 71.28718128 635.8619042 63.57528431 635.7644577 55.8629303 C635.71987877 52.27110946 635.68042705 48.67940308 635.65356445 45.08740234 C635.62746856 41.62476248 635.58702301 38.16255507 635.53681374 34.70018387 C635.51212068 32.74279832 635.50211639 30.78524523 635.49235535 28.82772827 C635.47256119 27.62693634 635.45276703 26.42614441 635.43237305 25.18896484 C635.41571846 23.61011002 635.41571846 23.61011002 635.39872742 21.99935913 C634.8557178 17.9146617 633.52421646 14.34057592 630.37890625 11.57421875 C624.40849321 8.65963002 618.587946 8.2195982 612 8 C612 6.68 612 5.36 612 4 C640.71 4 669.42 4 699 4 C699 5.32 699 6.64 699 8 C698.20335937 8.03738281 697.40671875 8.07476563 696.5859375 8.11328125 C686.97954554 8.63855282 686.97954554 8.63855282 679.1875 13.875 C676.92160431 17.92976071 676.87249198 22.16724127 676.85282898 26.73071289 C676.84567368 27.87468536 676.83851837 29.01865784 676.83114624 30.19729614 C676.82845734 31.44316498 676.82576843 32.68903381 676.82299805 33.97265625 C676.81642685 35.29184052 676.80985565 36.61102478 676.80308533 37.97018433 C676.78211908 42.33427733 676.77169446 46.69837042 676.76171875 51.0625 C676.75766934 52.56714903 676.75355236 54.07179787 676.74936867 55.57644653 C676.73033857 62.64201106 676.71609926 69.70756524 676.7077567 76.77315044 C676.69797211 84.9245055 676.6716119 93.07558991 676.63125581 101.22684956 C676.60110804 107.53271115 676.58628938 113.83849503 676.58297569 120.1444273 C676.58062498 123.90891747 676.57166126 127.67311774 676.54651451 131.43753052 C676.51892889 135.6343091 676.52306074 139.83048032 676.5300293 144.02734375 C676.51721924 145.27321259 676.50440918 146.51908142 676.49121094 147.80270386 C676.49815475 148.94667633 676.50509857 150.0906488 676.51225281 151.26928711 C676.50867028 152.75699867 676.50867028 152.75699867 676.50501537 154.27476501 C677.14309817 157.78785503 678.56091907 159.43674436 681 162 C684.36845466 164.24563644 685.5326782 164.26008123 689.4777832 164.29052734 C690.59937332 164.30328705 691.72096344 164.31604675 692.87654114 164.32919312 C694.69528999 164.33253159 694.69528999 164.33253159 696.55078125 164.3359375 C697.79748093 164.3425943 699.0441806 164.3492511 700.32865906 164.35610962 C702.96916961 164.36624491 705.60926859 164.37179057 708.24975586 164.37060547 C710.95315287 164.37044287 713.65587274 164.38433031 716.35913086 164.41162109 C720.25655855 164.44827029 724.15319841 164.45807899 728.05078125 164.4609375 C729.25720779 164.47530853 730.46363434 164.48967957 731.70661926 164.50448608 C740.17602458 164.48142519 740.17602458 164.48142519 747 160 C749.038071 156.7657814 749.25106032 154.2296161 749.25396729 150.44096375 C749.26242676 148.74402374 749.26242676 148.74402374 749.27105713 147.01280212 C749.26700867 145.77583084 749.26296021 144.53885956 749.25878906 143.2644043 C749.2622937 141.95833221 749.26579834 140.65226013 749.26940918 139.30661011 C749.27852654 135.7258749 749.27499093 132.14525496 749.26865101 128.56451774 C749.26358445 124.81350124 749.26828459 121.06249455 749.27142334 117.31147766 C749.27506242 111.00914745 749.27026683 104.70686411 749.26074219 98.40454102 C749.24987189 91.12800158 749.25337305 83.85157435 749.264395 76.57503766 C749.27348646 70.32181106 749.27474364 64.06861815 749.26951766 57.81538707 C749.26640635 54.08333901 749.26596522 50.35134357 749.27259064 46.61929893 C749.27946829 42.45405878 749.269921 38.28901024 749.25878906 34.1237793 C749.26486176 32.27743141 749.26486176 32.27743141 749.27105713 30.39378357 C749.49402953 20.2214554 749.49402953 20.2214554 744.75 11.6875 C739.55820673 8.64808334 732.85676709 8.60974562 727 8 C727 6.68 727 5.36 727 4 C755.71 4 784.42 4 814 4 C814 5.32 814 6.64 814 8 C812.46279297 8.16435547 812.46279297 8.16435547 810.89453125 8.33203125 C809.53378133 8.49156745 808.17310806 8.6517584 806.8125 8.8125 C806.13896484 8.88275391 805.46542969 8.95300781 804.77148438 9.02539062 C800.49903773 9.5464207 797.35299252 10.25447682 794 13 C789.9411803 18.80977644 790.57794521 25.05664466 790.61181641 31.85498047 C790.60655945 33.14998474 790.60130249 34.44498901 790.59588623 35.77923584 C790.58224418 39.32071327 790.58749898 42.86192763 790.59702349 46.40340948 C790.60463951 50.11791516 790.59756879 53.83239891 790.59286499 57.54690552 C790.58741172 63.78603134 790.59458633 70.02505053 790.60888672 76.26416016 C790.62519816 83.46351716 790.61993407 90.66261905 790.6034075 97.86196983 C790.58976326 104.05496801 790.58788772 110.24788969 790.59572351 116.44089806 C790.60038577 120.134407 790.60106524 123.82779634 790.59111404 127.52129745 C790.58078426 131.64309363 790.59512957 135.76445513 790.61181641 139.88623047 C790.60574371 141.10104095 790.59967102 142.31585144 790.59341431 143.56747437 C790.61601526 154.16266885 790.61601526 154.16266885 795.96354675 162.97297668 C800.78883229 164.60503895 805.52331997 164.43894978 810.58325195 164.43237305 C811.75441055 164.4425647 812.92556915 164.45275635 814.13221741 164.46325684 C818.00095371 164.49343633 821.8694426 164.50266068 825.73828125 164.51171875 C828.42158275 164.52856175 831.10485123 164.54656582 833.78813171 164.56611633 C840.12739709 164.6097573 846.4666368 164.63831893 852.80600661 164.66143972 C860.02492467 164.68850434 867.24370966 164.73241502 874.46253264 164.77772844 C889.30828087 164.8705402 904.15407238 164.94223677 919 165 C911.98643265 148.6344418 911.98643265 148.6344418 904.97192383 132.26928711 C899.72869969 120.03727441 894.48739391 107.80445072 889.2525444 95.56885147 C887.4052491 91.25155408 885.55704413 86.93464598 883.70898438 82.61767578 C882.71194931 80.28795425 881.71535125 77.95804563 880.71923828 75.62792969 C875.54619975 63.52756376 870.34056894 51.44267993 865.046875 39.39453125 C864.59833664 38.37271255 864.14979828 37.35089386 863.68766785 36.29811096 C858.06381568 20.64164713 858.06381568 20.64164713 846.640625 10.05078125 C845.85171875 9.80714844 845.0628125 9.56351563 844.25 9.3125 C843.45078125 9.06113281 842.6515625 8.80976562 841.828125 8.55078125 C840.92320312 8.27814453 840.92320312 8.27814453 840 8 C840 6.68 840 5.36 840 4 C866.07 4 892.14 4 919 4 C919 5.32 919 6.64 919 8 C918.11957031 8.12117187 917.23914062 8.24234375 916.33203125 8.3671875 C915.17058594 8.53476562 914.00914062 8.70234375 912.8125 8.875 C911.66394531 9.03742187 910.51539063 9.19984375 909.33203125 9.3671875 C906.31275375 9.94060245 903.79424152 10.74759043 901 12 C899.51486445 18.24904114 900.69320653 21.96585919 903.2265625 27.76171875 C903.58593903 28.62012863 903.94531555 29.47853851 904.31558228 30.36296082 C905.52830376 33.24874706 906.76451622 36.12389345 908 39 C908.8880077 41.1042999 909.77435453 43.20930132 910.65917969 45.31494141 C913.04908493 50.98963569 915.46083998 56.65474066 917.88085938 62.31665039 C919.36824204 65.79668837 920.85237401 69.27809803 922.3359375 72.75976562 C923.31488608 75.05478054 924.29405104 77.34970316 925.2734375 79.64453125 C925.98738678 81.3179509 925.98738678 81.3179509 926.71575928 83.025177 C929.10018275 88.60169061 931.50656252 94.16718005 933.95410156 99.71630859 C934.42103424 100.77766525 934.88796692 101.83902191 935.36904907 102.93254089 C936.25314269 104.93788496 937.14188878 106.94118639 938.03598022 108.9420929 C938.42709991 109.82962753 938.8182196 110.71716217 939.22119141 111.6315918 C939.56614655 112.40641403 939.91110168 113.18123627 940.26651001 113.97953796 C941 116 941 116 941 119 C941.66 119 942.32 119 943 119 C943.34804687 117.84757813 943.69609375 116.69515625 944.0546875 115.5078125 C946.27374881 108.8661284 949.21912763 102.53676723 952.09463501 96.16107178 C953.8820423 92.19534953 955.65257459 88.22208675 957.42578125 84.25 C957.98137978 83.00680496 957.98137978 83.00680496 958.54820251 81.73849487 C962.45959315 72.98267419 966.3408064 64.21379903 970.19061279 55.4307251 C970.93175167 53.74236711 971.67507933 52.05496804 972.42071533 50.36859131 C980.21376431 34.32630156 980.21376431 34.32630156 982 17 C979.81517031 13.41063693 977.83998839 11.57807742 974 10 C971.76140807 9.56201462 969.50900513 9.19126072 967.25 8.875 C966.07953125 8.70742188 964.9090625 8.53984375 963.703125 8.3671875 C962.36507813 8.18542969 962.36507813 8.18542969 961 8 C961 6.68 961 5.36 961 4 C979.15 4 997.3 4 1016 4 C1015.67 5.65 1015.34 7.3 1015 9 C1011.3125 10.5 1011.3125 10.5 1009.30078125 11.03125 C990.06000243 19.13263056 980.38405195 57.4963549 972.47338867 75.3972168 C967.15042479 87.43994511 961.74929142 99.44575614 956.3125 111.4375 C954.71594348 114.95954374 953.11953338 118.48165373 951.5234375 122.00390625 C951.13911057 122.85200363 950.75478363 123.70010101 950.35881042 124.57389832 C946.15305068 133.86064855 941.98575625 143.16456651 937.83129883 152.47436523 C937.34943115 153.55274658 936.86756348 154.63112793 936.37109375 155.7421875 C935.95786865 156.6688623 935.54464355 157.59553711 935.11889648 158.55029297 C934.12674107 160.72251366 933.06798082 162.86403837 932 165 C960.71 165 989.42 165 1019 165 C1018.01 163.02 1017.02 161.04 1016 159 C1015.06726762 153.17042265 1015.1230068 147.66226931 1018.1875 142.5 C1021.33497611 138.21445344 1025.0729921 135.04205795 1030 133 C1036.44334954 132.30900012 1042.54923702 132.14458228 1048 136 C1052.47812569 139.83839344 1056.40037984 144.24238035 1057.3515625 150.203125 C1057.55018272 155.51170176 1056.40149949 159.29706351 1054 164 C1055.98 164.33 1057.96 164.66 1060 165 C1060 168.3 1060 171.6 1060 175 C679.51 175 299.02 175 -93 175 C-93 171.7 -93 168.4 -93 165 C-92.29875 164.98582031 -91.5975 164.97164062 -90.875 164.95703125 C-83.95424842 164.60911303 -79.30907845 163.51278497 -74 159 C-68.84408394 153.26968707 -65.60482141 146.62103946 -62.375 139.6875 C-61.59805786 138.04334106 -61.59805786 138.04334106 -60.80541992 136.3659668 C-55.59463327 125.27205936 -50.64105497 114.06569491 -45.70166016 102.84912109 C-42.84941842 96.38625135 -39.9524893 89.94326202 -37.0630188 83.49697876 C-30.14091253 68.05126035 -23.25055974 52.5914884 -16.375 37.125 C-15.95557129 36.18190979 -15.53614258 35.23881958 -15.10400391 34.26715088 C-10.03183238 22.86100286 -4.98718775 11.44357954 0 0 Z " fill="#FCFCFC" transform="translate(267,589)"/>
<path d="M0 0 C7.42356989 4.98357483 12.50122048 11.35403285 15 20 C17.47511944 39.40807943 10.43459552 56.56726333 -1 72 C-11.34506104 85.33759785 -24.82378165 95.80209528 -42 98 C-45.27188123 98.18545369 -48.53587116 98.23042343 -51.8125 98.25 C-52.66392578 98.270625 -53.51535156 98.29125 -54.39257812 98.3125 C-64.49354586 98.37404436 -71.35945034 95.64989921 -78.6953125 88.6796875 C-86.82282554 79.22973166 -88.75139756 69.08216041 -88.17480469 57.01367188 C-86.94399532 42.835298 -79.24142374 29.50603962 -70 19 C-69.35675781 18.26265625 -68.71351562 17.5253125 -68.05078125 16.765625 C-51.70432446 -0.75922701 -22.39272853 -13.69002387 0 0 Z " fill="#FAFAFA" transform="translate(1306,813)"/>
<path d="M0 0 C19.14 0 38.28 0 58 0 C58.16043524 15.65134871 58.16043524 15.65134871 58.1953125 22.359375 C58.21915868 26.924019 58.24726784 31.4883399 58.30175781 36.05273438 C58.34544579 39.73563664 58.36918499 43.41819208 58.37950897 47.10133362 C58.3868595 48.50148472 58.40121298 49.90161836 58.42292023 51.30162048 C58.64948328 66.52914787 58.64948328 66.52914787 54 72 C49.26479263 75.47564652 44.57150984 75.4809139 38.91015625 75.50390625 C38.04740585 75.51389145 37.18465546 75.52387665 36.29576111 75.53416443 C34.47790295 75.5492969 32.6599621 75.55639174 30.84204102 75.5559082 C28.07362747 75.56247361 25.30879609 75.61701152 22.54101562 75.67382812 C20.76824134 75.68263106 18.99545015 75.6885847 17.22265625 75.69140625 C16.4026564 75.7129628 15.58265656 75.73451935 14.73780823 75.75672913 C9.1710152 75.69093509 6.33869058 74.3180796 2.30467224 70.48350525 C-0.46874211 67.32993562 -0.12119399 64.71759299 -0.11352539 60.62255859 C-0.11367142 59.96877731 -0.11381744 59.31499603 -0.1139679 58.6414032 C-0.11327036 56.47704773 -0.1054854 54.31277796 -0.09765625 52.1484375 C-0.09579151 50.64913988 -0.09436787 49.14984166 -0.09336853 47.65054321 C-0.08954779 43.70168378 -0.07972128 39.75286104 -0.06866455 35.80401611 C-0.05664385 31.06750242 -0.05204608 26.33097648 -0.04621124 21.5944519 C-0.03650929 14.39627574 -0.01734966 7.19818011 0 0 Z " fill="#020202" transform="translate(845,679)"/>
<path d="M0 0 C1.32 0 2.64 0 4 0 C4.10068407 9.87036796 3.7856702 19.69778038 3.34375 29.5546875 C3.27620192 31.11116309 3.20894694 32.66765143 3.14196777 34.22415161 C2.96677206 38.28204717 2.78852149 42.33980181 2.60931396 46.39752197 C2.32193725 52.91059182 2.03818503 59.42381735 1.75654602 65.9371376 C1.65823402 68.19658982 1.55791824 70.45594663 1.45739746 72.71530151 C1.39665653 74.10821219 1.33598397 75.50112586 1.27539062 76.89404297 C1.22209595 78.1005954 1.16880127 79.30714783 1.1138916 80.55026245 C0.84312966 88.33539551 0.84312966 88.33539551 2 96 C4.31 96.66 6.62 97.32 9 98 C9 98.99 9 99.98 9 101 C-5.85 101 -20.7 101 -36 101 C-36 100.01 -36 99.02 -36 98 C-35.09507812 97.92265625 -35.09507812 97.92265625 -34.171875 97.84375 C-33.37265625 97.7303125 -32.5734375 97.616875 -31.75 97.5 C-30.96109375 97.4071875 -30.1721875 97.314375 -29.359375 97.21875 C-25.51530529 95.23307161 -24.31332846 92.00805928 -23 88 C-22.44435015 84.66074522 -22.30712737 81.38090152 -22.25 78 C-22.20552734 76.69482422 -22.20552734 76.69482422 -22.16015625 75.36328125 C-22.09024592 73.24266784 -22.04276884 71.12133437 -22 69 C-40.9103769 67.12964015 -40.9103769 67.12964015 -57.84765625 73.23046875 C-61.18090591 76.7916405 -63.69321148 80.72162725 -66 85 C-66.58910156 85.92683594 -67.17820312 86.85367188 -67.78515625 87.80859375 C-69.21589653 90.3894468 -69.24914767 92.09327716 -69 95 C-66.69 95.99 -64.38 96.98 -62 98 C-62 98.99 -62 99.98 -62 101 C-72.23 101 -82.46 101 -93 101 C-91.7874289 97.36228669 -90.98156536 97.15731481 -87.6875 95.4375 C-86.90761719 95.02371094 -86.12773438 94.60992188 -85.32421875 94.18359375 C-83 93 -83 93 -80.83203125 92.09765625 C-78.52903477 90.71782254 -78.09812869 89.41041525 -77 87 C-75.58984375 85.46484375 -75.58984375 85.46484375 -73.9375 83.9375 C-70.98558045 81.07668908 -68.3815963 78.08403484 -65.8125 74.875 C-62.36238435 70.58439621 -58.76226067 66.51335506 -55 62.5 C-50.54102901 57.73933097 -46.36200536 52.83530143 -42.27734375 47.74609375 C-39.33922549 44.20321701 -36.21768822 40.84558228 -33.08349609 37.47802734 C-30.11269934 34.26683127 -27.30031679 30.97363159 -24.5625 27.5625 C-20.21239387 22.15805935 -15.54695873 17.10327728 -10.81640625 12.03515625 C-7.87545235 8.88124692 -5.02526434 5.65456406 -2.20703125 2.390625 C-1.49611889 1.57158034 -0.76688674 0.76688674 0 0 Z " fill="#F9F9F9" transform="translate(941,808)"/>
<path d="M0 0 C17.16 0 34.32 0 52 0 C52 0.99 52 1.98 52 3 C51.24074219 3.20496094 50.48148438 3.40992188 49.69921875 3.62109375 C48.70535156 3.89050781 47.71148438 4.15992188 46.6875 4.4375 C45.70136719 4.70433594 44.71523437 4.97117187 43.69921875 5.24609375 C41.78482474 5.78079425 39.88566385 6.37144538 38 7 C36.87907096 9.15128744 36.87907096 9.15128744 36 12 C35.68554932 12.90202148 35.68554932 12.90202148 35.36474609 13.82226562 C31.82870401 24.00170563 28.61249947 34.27333521 25.67822266 44.64111328 C24.92638887 47.25602257 24.14041517 49.85969229 23.35546875 52.46484375 C17.86923422 69.0648242 17.86923422 69.0648242 20.3203125 85.7265625 C22.96674389 89.30847661 25.76999764 90.73032032 30 92 C39.5859032 93.30537059 47.96848816 91.25525383 55.75 85.5 C63.58606205 78.10540624 66.33262192 66.63621774 69.24023438 56.61181641 C70.14195033 53.51202295 71.06282684 50.41817353 71.984375 47.32421875 C73.69440698 41.57815195 75.39603518 35.82970048 77.08496094 30.07739258 C77.67391199 28.09667539 78.27517199 26.11955513 78.89160156 24.1472168 C80.68659024 18.39052338 82.21132917 13.05664587 81 7 C77.81781039 3.91140421 74.32236622 3.50260072 70 3 C70 2.01 70 1.02 70 0 C81.55 0 93.1 0 105 0 C105 0.99 105 1.98 105 3 C104.40832031 3.15855469 103.81664062 3.31710937 103.20703125 3.48046875 C97.90354071 5.04642599 94.33329431 6.37042457 91 11 C87.40690534 18.60630501 85.23717903 26.570495 83.16796875 34.6953125 C81.06591849 42.68730377 78.37370481 50.51825252 75.82910156 58.37744141 C74.99809402 61.00602887 74.22013849 63.6462103 73.44921875 66.29296875 C69.74148803 78.70867463 62.73390094 90.64170376 51.05078125 97.0390625 C50.37402344 97.35617187 49.69726562 97.67328125 49 98 C48.00033203 98.47566406 48.00033203 98.47566406 46.98046875 98.9609375 C35.80559997 103.22734975 20.37899092 102.64678292 9.4140625 98.18359375 C8.61742187 97.79300781 7.82078125 97.40242187 7 97 C5.95972656 96.49146484 5.95972656 96.49146484 4.8984375 95.97265625 C-1.30322406 92.26485434 -3.79649461 85.61051616 -6 79 C-6.51098558 72.63740531 -4.90687349 67.2782578 -3.125 61.25 C-2.82198975 60.19393555 -2.51897949 59.13787109 -2.20678711 58.04980469 C-1.14756518 54.36368085 -0.0745885 50.68166236 1 47 C2.59169698 41.53809024 4.17692052 36.07436401 5.75421143 30.60827637 C6.42981808 28.2765131 7.11380828 25.94732038 7.79833984 23.61816406 C8.21876916 22.16741755 8.63886905 20.71657552 9.05859375 19.265625 C9.35341393 18.2748999 9.35341393 18.2748999 9.65419006 17.26416016 C10.66114287 13.75078751 11.2168433 10.65623118 11 7 C5.6400004 4.58749273 5.6400004 4.58749273 0 3 C0 2.01 0 1.02 0 0 Z " fill="#F8F8F8" transform="translate(996,810)"/>
<path d="M0 0 C4.33101317 3.0216371 6.68354027 6.73090159 7.6875 11.875 C9.06576245 26.79734148 4.58571964 41.94293815 -0.3125 55.875 C-0.68117188 56.93460938 -1.04984375 57.99421875 -1.4296875 59.0859375 C-5.99838324 71.0905794 -13.29189585 82.57824778 -24.8125 88.75 C-29.88061842 90.37903806 -33.48894515 90.55436357 -38.5 88.6875 C-42.53843343 86.08495401 -44.79289779 83.43380664 -46.3125 78.875 C-48.35727173 54.98481894 -41.17165949 27.9750784 -26.3125 8.875 C-18.81534016 0.95484865 -10.8798187 -3.69503276 0 0 Z " fill="#010101" transform="translate(1289.3125,815.125)"/>
<path d="M0 0 C30.67857143 0 30.67857143 0 40.8203125 8.53125 C46.81594371 14.91855561 49.61606484 23.36145897 50 32 C50.0515625 32.81984375 50.103125 33.6396875 50.15625 34.484375 C50.5470317 45.75191391 48.44903775 56.28424771 41 65 C35.56339255 70.16477708 29.88978418 72.32289525 22.5 73.1875 C21.2315625 73.34605469 19.963125 73.50460937 18.65625 73.66796875 C12.45226862 74.11036675 6.2197348 74 0 74 C0 49.58 0 25.16 0 0 Z " fill="#010101" transform="translate(444,601)"/>
<path d="M0 0 C27.06 0 54.12 0 82 0 C80.875 7.875 80.875 7.875 79.80859375 11.83984375 C79.58623047 12.67451172 79.36386719 13.50917969 79.13476562 14.36914062 C78.90466797 15.21669922 78.67457031 16.06425781 78.4375 16.9375 C78.20353516 17.81212891 77.96957031 18.68675781 77.72851562 19.58789062 C77.15594751 21.72625725 76.57970405 23.86355903 76 26 C74.68 26.33 73.36 26.66 72 27 C71.91363281 26.19175781 71.82726563 25.38351562 71.73828125 24.55078125 C71.59777344 23.48214844 71.45726562 22.41351562 71.3125 21.3125 C71.18488281 20.25675781 71.05726562 19.20101562 70.92578125 18.11328125 C69.73909949 14.1226257 68.26919582 12.55850108 65 10 C61.46022518 8.56005547 61.46022518 8.56005547 57.6875 7.6875 C56.43324219 7.36136719 55.17898438 7.03523437 53.88671875 6.69921875 C52.93410156 6.46847656 51.98148438 6.23773437 51 6 C50.88140625 6.66515625 50.7628125 7.3303125 50.640625 8.015625 C49.8601183 11.65164403 48.81687421 15.19049002 47.75 18.75 C47.29681698 20.27602444 46.84369364 21.8020666 46.390625 23.328125 C46.15923828 24.10478516 45.92785156 24.88144531 45.68945312 25.68164062 C44.61777929 29.28525773 43.55905886 32.89265936 42.5 36.5 C41.27882811 40.6578673 40.05609673 44.81519901 38.8203125 48.96875 C37.53133163 53.30801922 36.26121571 57.65258362 35 62 C34.7023877 63.02416016 34.40477539 64.04832031 34.09814453 65.10351562 C33.12012082 68.48348674 32.152662 71.86633573 31.1875 75.25 C30.87312988 76.33410156 30.55875977 77.41820312 30.23486328 78.53515625 C29.94466309 79.55996094 29.65446289 80.58476563 29.35546875 81.640625 C28.96331177 83.01009277 28.96331177 83.01009277 28.56323242 84.40722656 C27.98607046 87.06412297 27.75202671 89.29221253 28 92 C30.3129482 94.3129482 31.47904875 94.49580975 34.625 95.125 C35.44226562 95.29257812 36.25953125 95.46015625 37.1015625 95.6328125 C37.72804688 95.75398437 38.35453125 95.87515625 39 96 C39 96.99 39 97.98 39 99 C21.84 99 4.68 99 -13 99 C-12.67 98.01 -12.34 97.02 -12 96 C-10.109375 95.4453125 -10.109375 95.4453125 -7.75 95.125 C-3.06059849 94.18860604 -0.89942993 92.97636105 2 89 C5.7406708 81.15024424 7.95161004 72.71254699 10.3125 64.375 C10.70613665 63.00040657 11.10035039 61.62597828 11.49511719 60.25170898 C12.28953773 57.48436601 13.08162897 54.7163754 13.87158203 51.94775391 C25.64759581 10.70480838 25.64759581 10.70480838 28 6 C24.98438765 6.60597411 21.99237385 7.2883989 19 8 C18.2575 8.15984375 17.515 8.3196875 16.75 8.484375 C8.2796819 10.72295907 1.90219763 16.92648939 -2.9375 24.0625 C-3.618125 25.031875 -4.29875 26.00125 -5 27 C-5.99 27 -6.98 27 -8 27 C-6.57356038 17.95168897 -4.11901688 8.23803376 0 0 Z " fill="#FAFAFA" transform="translate(1128,810)"/>
<path d="M0 0 C1.02814316 0.00222061 2.05628632 0.00444122 3.11558533 0.00672913 C4.85727745 0.00684242 4.85727745 0.00684242 6.63415527 0.00695801 C8.52943214 0.01469994 8.52943214 0.01469994 10.46299744 0.02259827 C12.39193092 0.02472069 12.39193092 0.02472069 14.35983276 0.02688599 C17.78427561 0.03071034 21.20867628 0.0405399 24.63310242 0.05158997 C28.12522308 0.06180587 31.61735053 0.06638399 35.10948181 0.07142639 C41.96561897 0.08216225 48.82172806 0.09923767 55.67784119 0.12025452 C57.38702112 3.91680935 59.07669331 7.72131436 60.74986267 11.53382874 C61.31994852 12.82580892 61.89502807 14.11559891 62.47544861 15.40296936 C69.62881365 31.28973521 69.62881365 31.28973521 68.67784119 38.12025452 C66.85586001 41.17637203 66.1223937 41.97207035 62.67784119 43.12025452 C60.61434226 43.22445059 58.54764214 43.26886915 56.48155212 43.28138733 C55.20302368 43.29099487 53.92449524 43.30060242 52.60722351 43.3105011 C51.20888955 43.31535004 49.81055352 43.31962863 48.41221619 43.32337952 C46.97595722 43.32913445 45.53969827 43.33489214 44.10343933 43.34065247 C41.09063866 43.35115601 38.07786462 43.35700245 35.06504822 43.36048889 C31.21726553 43.36596299 27.3698386 43.38997012 23.52216721 43.41846085 C20.55376686 43.4371513 17.58545097 43.44229628 14.61699677 43.44382477 C13.19930839 43.44683895 11.78162106 43.45482553 10.36399078 43.46800995 C-5.30327952 43.60328324 -5.30327952 43.60328324 -11.19715881 38.49525452 C-14.12357263 32.3172698 -13.6330358 26.42912954 -11.48622131 20.08900452 C-3.68402257 0.19077952 -3.68402257 0.19077952 0 0 Z " fill="#010101" transform="translate(226.32215881347656,710.8797454833984)"/>
<path d="M0 0 C9.15629263 -0.59784426 9.15629263 -0.59784426 12.24194336 1.58862305 C12.70737549 2.32636963 13.17280762 3.06411621 13.65234375 3.82421875 C14.20390137 4.64970215 14.75545898 5.47518555 15.32373047 6.32568359 C16.15348389 7.64947021 16.15348389 7.64947021 17 9 C18.22431452 10.74002363 19.4549536 12.47561185 20.69140625 14.20703125 C21.98419731 16.07384279 23.27447111 17.94239956 24.5625 19.8125 C25.97500537 21.85304115 27.38777061 23.89340244 28.80078125 25.93359375 C29.85579834 27.45895752 29.85579834 27.45895752 30.93212891 29.01513672 C34.02409924 33.47823345 37.13512778 37.92786842 40.25 42.375 C41.09739746 43.58579224 41.09739746 43.58579224 41.96191406 44.82104492 C44.79945984 48.87204724 47.64568765 52.91667897 50.50390625 56.953125 C51.33970215 58.13382568 51.33970215 58.13382568 52.19238281 59.33837891 C53.24638062 60.8259834 54.30165205 62.3126866 55.35839844 63.79833984 C58.89078786 68.78157571 58.89078786 68.78157571 60 71 C52.989166 71.07618093 45.97843911 71.12865495 38.96728516 71.16479492 C36.58312999 71.179864 34.19900247 71.20032291 31.81494141 71.22631836 C28.38437063 71.26278337 24.954167 71.27974552 21.5234375 71.29296875 C20.46071625 71.30845261 19.397995 71.32393646 18.30307007 71.33988953 C11.83870946 71.34135345 7.33359569 70.75883781 2.1875 66.5 C-0.38423904 63.25148753 -0.12155103 59.92465699 -0.11352539 55.96801758 C-0.11344986 54.72695755 -0.11337433 53.48589752 -0.11329651 52.20722961 C-0.10818991 50.85299642 -0.10297391 49.49876363 -0.09765625 48.14453125 C-0.09579083 46.75876415 -0.09436751 45.37299639 -0.09336853 43.98722839 C-0.0895531 40.3425209 -0.07973113 36.69785335 -0.06866455 33.05316162 C-0.0584295 29.33297262 -0.05386642 25.61277715 -0.04882812 21.89257812 C-0.03810798 14.59503389 -0.02104325 7.29752254 0 0 Z " fill="#010101" transform="translate(444,683)"/>
<path d="M0 0 C2.36633458 2.36633458 3.16768507 4.42706988 4.46875 7.51171875 C4.95311523 8.6519751 5.43748047 9.79223145 5.93652344 10.96704102 C6.45781622 12.20713772 6.97897216 13.44729196 7.5 14.6875 C8.57635213 17.23252299 9.65549438 19.77636058 10.734375 22.3203125 C11.00630676 22.96293533 11.27823853 23.60555817 11.55841064 24.26765442 C13.34481841 28.48221789 15.16715092 32.67935317 17.015625 36.8671875 C17.70881836 38.43980347 17.70881836 38.43980347 18.41601562 40.04418945 C19.29088015 42.02368251 20.16965443 44.0014532 21.05273438 45.97729492 C21.44267578 46.86263916 21.83261719 47.7479834 22.234375 48.66015625 C22.57694336 49.42980713 22.91951172 50.19945801 23.27246094 50.99243164 C24 53 24 53 24 56 C7.83 56 -8.34 56 -25 56 C-16.93220149 36.40677505 -16.93220149 36.40677505 -13.6328125 29.0625 C-13.26775604 28.24547607 -12.90269958 27.42845215 -12.52658081 26.58666992 C-11.77350767 24.90293247 -11.01921818 23.21973849 -10.26367188 21.53710938 C-9.10177504 18.94825177 -7.94522156 16.35704941 -6.7890625 13.765625 C-6.04978906 12.11444455 -5.31021767 10.46339746 -4.5703125 8.8125 C-4.05321213 7.6534314 -4.05321213 7.6534314 -3.52566528 6.47094727 C-1.11513885 1.11513885 -1.11513885 1.11513885 0 0 Z " fill="#020202" transform="translate(253,646)"/>
<path d="M0 0 C0.33 0 0.66 0 1 0 C1.02739698 2.93756534 1.04702714 5.8748661 1.0625 8.8125 C1.07087891 9.62654297 1.07925781 10.44058594 1.08789062 11.27929688 C1.11284536 17.64275423 0.58254944 23.5919562 0 30 C-8.58 30 -17.16 30 -26 30 C-21.99851965 24.66469286 -18.121133 19.78507312 -13.5625 15 C-12.42222519 13.7899588 -11.28289552 12.57902623 -10.14453125 11.3671875 C-9.60393066 10.79194336 -9.06333008 10.21669922 -8.50634766 9.62402344 C-5.98250529 6.90301867 -3.56719361 4.09187759 -1.171875 1.2578125 C-0.78515625 0.84273437 -0.3984375 0.42765625 0 0 Z " fill="#050505" transform="translate(920,841)"/>
</svg>
